HeuerSchrift.ufo
<glyph name="exclam" format="1">
  <advance width="256"/>
  <unicode hex="0021"/>
  <outline>
    <contour>
      <point x="176" y="192" type="line"/>
      <point x="256" y="272" type="line"/>
      <point x="256" y="288" type="line"/>
      <point x="224" y="288" type="line" smooth="yes"/>
      <point x="213" y="288"/>
      <point x="205" y="291"/>
      <point x="200" y="296" type="curve" smooth="yes"/>
      <point x="195" y="301"/>
      <point x="192" y="309"/>
      <point x="192" y="320" type="curve" smooth="yes"/>
      <point x="192" y="608" type="line" smooth="yes"/>
      <point x="192" y="640"/>
      <point x="184" y="664"/>
      <point x="168" y="680" type="curve" smooth="yes"/>
      <point x="152" y="696"/>
      <point x="128" y="704"/>
      <point x="96" y="704" type="curve" smooth="yes"/>
      <point x="80" y="704" type="line"/>
      <point x="0" y="624" type="line"/>
      <point x="0" y="608" type="line"/>
      <point x="32" y="608" type="line" smooth="yes"/>
      <point x="43" y="608"/>
      <point x="51" y="605"/>
      <point x="56" y="600" type="curve" smooth="yes"/>
      <point x="61" y="595"/>
      <point x="64" y="587"/>
      <point x="64" y="576" type="curve" smooth="yes"/>
      <point x="64" y="288" type="line" smooth="yes"/>
      <point x="64" y="256"/>
      <point x="72" y="232"/>
      <point x="88" y="216" type="curve" smooth="yes"/>
      <point x="104" y="200"/>
      <point x="128" y="192"/>
      <point x="160" y="192" type="curve" smooth="yes"/>
    </contour>
    <contour>
      <point x="64" y="48" type="line"/>
      <point x="64" y="32" type="line"/>
      <point x="136" y="-40" type="line"/>
      <point x="152" y="-40" type="line"/>
      <point x="224" y="32" type="line"/>
      <point x="224" y="48" type="line"/>
      <point x="152" y="120" type="line"/>
      <point x="136" y="120" type="line"/>
    </contour>
  </outline>
</glyph>
<glyph name="dollar" format="1">
  <advance width="432"/>
  <unicode hex="0024"/>
  <outline>
    <contour>
      <point x="144" y="480" type="line" smooth="yes"/>
      <point x="123" y="501"/>
      <point x="110" y="517"/>
      <point x="105" y="528" type="curve" smooth="yes"/>
      <point x="100" y="539"/>
      <point x="97" y="555"/>
      <point x="97" y="576" type="curve"/>
      <point x="161" y="576" type="line"/>
      <point x="161" y="464" type="line"/>
    </contour>
    <contour>
      <point x="241" y="208" type="line" smooth="yes"/>
      <point x="262" y="187"/>
      <point x="275" y="171"/>
      <point x="280" y="160" type="curve" smooth="yes"/>
      <point x="285" y="149"/>
      <point x="288" y="133"/>
      <point x="288" y="112" type="curve" smooth="yes"/>
      <point x="288" y="96" type="line"/>
      <point x="224" y="96" type="line"/>
      <point x="224" y="224" type="line"/>
    </contour>
    <contour>
      <point x="224" y="0" type="line"/>
      <point x="304" y="0" type="line"/>
      <point x="384" y="80" type="line"/>
      <point x="384" y="144" type="line" smooth="yes"/>
      <point x="384" y="187"/>
      <point x="379" y="219"/>
      <point x="368" y="240" type="curve" smooth="yes"/>
      <point x="357" y="261"/>
      <point x="341" y="282"/>
      <point x="320" y="303" type="curve" smooth="yes"/>
      <point x="224" y="399" type="line"/>
      <point x="224" y="575" type="line"/>
      <point x="304" y="575" type="line"/>
      <point x="384" y="655" type="line"/>
      <point x="384" y="671" type="line"/>
      <point x="224" y="671" type="line"/>
      <point x="224" y="735" type="line"/>
      <point x="160" y="671" type="line"/>
      <point x="80" y="671" type="line"/>
      <point x="0" y="591" type="line"/>
      <point x="0" y="543" type="line" smooth="yes"/>
      <point x="0" y="500"/>
      <point x="5" y="468"/>
      <point x="16" y="447" type="curve" smooth="yes"/>
      <point x="27" y="426"/>
      <point x="43" y="405"/>
      <point x="64" y="384" type="curve" smooth="yes"/>
      <point x="160" y="288" type="line"/>
      <point x="160" y="96" type="line"/>
      <point x="80" y="96" type="line"/>
      <point x="0" y="16" type="line"/>
      <point x="0" y="0" type="line"/>
      <point x="160" y="0" type="line"/>
      <point x="160" y="-64" type="line"/>
    </contour>
  </outline>
</glyph>
<glyph name="comma" format="1">
  <advance width="183"/>
  <unicode hex="002C"/>
  <outline>
    <contour>
      <point x="32" y="48" type="line"/>
      <point x="32" y="32" type="line"/>
      <point x="64" y="11"/>
      <point x="84" y="-10"/>
      <point x="92" y="-31" type="curve" smooth="yes"/>
      <point x="100" y="-52"/>
      <point x="104" y="-81"/>
      <point x="104" y="-118" type="curve"/>
      <point x="120" y="-118" type="line"/>
      <point x="192" y="-46" type="line"/>
      <point x="192" y="-30" type="line" smooth="yes"/>
      <point x="192" y="2"/>
      <point x="186" y="31"/>
      <point x="174" y="58" type="curve" smooth="yes"/>
      <point x="162" y="85"/>
      <point x="144" y="106"/>
      <point x="120" y="122" type="curve"/>
      <point x="104" y="122" type="line"/>
    </contour>
  </outline>
</glyph>
<glyph name="period" format="1">
  <advance width="214"/>
  <unicode hex="002E"/>
  <outline>
    <contour>
      <point x="32" y="48" type="line"/>
      <point x="32" y="32" type="line"/>
      <point x="104" y="-40" type="line"/>
      <point x="120" y="-40" type="line"/>
      <point x="192" y="32" type="line"/>
      <point x="192" y="48" type="line"/>
      <point x="120" y="120" type="line"/>
      <point x="104" y="120" type="line"/>
    </contour>
  </outline>
</glyph>
<glyph name="slash" format="1">
  <advance width="272"/>
  <unicode hex="002F"/>
  <outline>
    <contour>
      <point x="0" y="0" type="line"/>
      <point x="43" y="0" type="line"/>
      <point x="254" y="672" type="line"/>
      <point x="210" y="672" type="line"/>
    </contour>
  </outline>
</glyph>
<glyph name="zero" format="1">
  <advance width="448"/>
  <unicode hex="0030"/>
  <outline>
    <contour>
      <point x="128" y="0" type="curve" smooth="yes"/>
      <point x="256" y="0" type="line"/>
      <point x="352" y="96" type="line" smooth="yes"/>
      <point x="373" y="117"/>
      <point x="389" y="136"/>
      <point x="400" y="152" type="curve" smooth="yes"/>
      <point x="411" y="168"/>
      <point x="416" y="192"/>
      <point x="416" y="224" type="curve" smooth="yes"/>
      <point x="416" y="576" type="line" smooth="yes"/>
      <point x="416" y="608"/>
      <point x="408" y="632"/>
      <point x="392" y="648" type="curve" smooth="yes"/>
      <point x="376" y="664"/>
      <point x="352" y="672"/>
      <point x="320" y="672" type="curve" smooth="yes"/>
      <point x="192" y="672" type="line"/>
      <point x="96" y="576" type="line" smooth="yes"/>
      <point x="75" y="555"/>
      <point x="59" y="536"/>
      <point x="48" y="520" type="curve" smooth="yes"/>
      <point x="37" y="504"/>
      <point x="32" y="480"/>
      <point x="32" y="448" type="curve" smooth="yes"/>
      <point x="32" y="96" type="line" smooth="yes"/>
      <point x="32" y="64"/>
      <point x="40" y="40"/>
      <point x="56" y="24" type="curve" smooth="yes"/>
      <point x="72" y="8"/>
      <point x="96" y="0"/>
    </contour>
    <contour>
      <point x="192" y="96" type="line" smooth="yes"/>
      <point x="181" y="96"/>
      <point x="173" y="99"/>
      <point x="168" y="104" type="curve" smooth="yes"/>
      <point x="163" y="109"/>
      <point x="160" y="117"/>
      <point x="160" y="128" type="curve" smooth="yes"/>
      <point x="160" y="512" type="line" smooth="yes"/>
      <point x="160" y="528"/>
      <point x="161" y="539"/>
      <point x="164" y="544" type="curve" smooth="yes"/>
      <point x="167" y="549"/>
      <point x="171" y="554"/>
      <point x="176" y="559" type="curve" smooth="yes"/>
      <point x="192" y="575" type="line"/>
      <point x="256" y="575" type="line" smooth="yes"/>
      <point x="267" y="575"/>
      <point x="275" y="572"/>
      <point x="280" y="567" type="curve" smooth="yes"/>
      <point x="285" y="562"/>
      <point x="288" y="554"/>
      <point x="288" y="543" type="curve" smooth="yes"/>
      <point x="288" y="159" type="line" smooth="yes"/>
      <point x="288" y="143"/>
      <point x="287" y="132"/>
      <point x="284" y="127" type="curve" smooth="yes"/>
      <point x="281" y="122"/>
      <point x="277" y="117"/>
      <point x="272" y="112" type="curve" smooth="yes"/>
      <point x="256" y="96" type="line"/>
    </contour>
  </outline>
</glyph>
<glyph name="two" format="1">
  <advance width="416"/>
  <unicode hex="0032"/>
  <outline>
    <contour>
      <point x="0" y="0" type="line"/>
      <point x="304" y="0" type="line"/>
      <point x="384" y="80" type="line"/>
      <point x="384" y="96" type="line"/>
      <point x="191" y="96" type="line"/>
      <point x="242" y="149"/>
      <point x="287" y="205"/>
      <point x="326" y="264" type="curve" smooth="yes"/>
      <point x="365" y="323"/>
      <point x="385" y="379"/>
      <point x="385" y="432" type="curve" smooth="yes"/>
      <point x="385" y="517"/>
      <point x="361" y="578"/>
      <point x="313" y="615" type="curve" smooth="yes"/>
      <point x="265" y="652"/>
      <point x="204" y="671"/>
      <point x="129" y="671" type="curve" smooth="yes"/>
      <point x="81" y="671" type="line"/>
      <point x="1" y="591" type="line"/>
      <point x="1" y="575" type="line"/>
      <point x="65" y="575" type="line" smooth="yes"/>
      <point x="140" y="575"/>
      <point x="191" y="562"/>
      <point x="218" y="535" type="curve" smooth="yes"/>
      <point x="245" y="508"/>
      <point x="258" y="463"/>
      <point x="258" y="399" type="curve" smooth="yes"/>
      <point x="258" y="346"/>
      <point x="237" y="290"/>
      <point x="194" y="231" type="curve" smooth="yes"/>
      <point x="151" y="172"/>
      <point x="114" y="127"/>
      <point x="82" y="95" type="curve" smooth="yes"/>
      <point x="2" y="15" type="line"/>
    </contour>
  </outline>
</glyph>
<glyph name="three" format="1">
  <advance width="384"/>
  <unicode hex="0033"/>
  <outline>
    <contour>
      <point x="0" y="0" type="line"/>
      <point x="192" y="0" type="line"/>
      <point x="272" y="80" type="line" smooth="yes"/>
      <point x="309" y="119"/>
      <point x="337" y="158"/>
      <point x="356" y="196" type="curve" smooth="yes"/>
      <point x="375" y="234"/>
      <point x="384" y="275"/>
      <point x="384" y="320" type="curve" smooth="yes"/>
      <point x="384" y="357"/>
      <point x="372" y="392"/>
      <point x="348" y="425" type="curve" smooth="yes"/>
      <point x="324" y="458"/>
      <point x="287" y="486"/>
      <point x="236" y="509" type="curve"/>
      <point x="383" y="656" type="line"/>
      <point x="383" y="672" type="line"/>
      <point x="79" y="672" type="line"/>
      <point x="-1" y="592" type="line"/>
      <point x="-1" y="576" type="line"/>
      <point x="239" y="576" type="line"/>
      <point x="111" y="448" type="line"/>
      <point x="111" y="432" type="line"/>
      <point x="155" y="421"/>
      <point x="190" y="404"/>
      <point x="216" y="380" type="curve" smooth="yes"/>
      <point x="242" y="356"/>
      <point x="255" y="325"/>
      <point x="255" y="288" type="curve" smooth="yes"/>
      <point x="255" y="248"/>
      <point x="250" y="213"/>
      <point x="239" y="182" type="curve" smooth="yes"/>
      <point x="228" y="151"/>
      <point x="209" y="122"/>
      <point x="181" y="95" type="curve"/>
      <point x="79" y="95" type="line"/>
      <point x="-1" y="15" type="line"/>
    </contour>
  </outline>
</glyph>
<glyph name="four" format="1">
  <advance width="480"/>
  <unicode hex="0034"/>
  <outline>
    <contour>
      <point x="208" y="0" type="line"/>
      <point x="368" y="0" type="line"/>
      <point x="448" y="80" type="line"/>
      <point x="448" y="96" type="line"/>
      <point x="384" y="96" type="line"/>
      <point x="405" y="117"/>
      <point x="421" y="136"/>
      <point x="432" y="152" type="curve" smooth="yes"/>
      <point x="443" y="168"/>
      <point x="448" y="192"/>
      <point x="448" y="224" type="curve" smooth="yes"/>
      <point x="448" y="576" type="line" smooth="yes"/>
      <point x="448" y="608"/>
      <point x="440" y="632"/>
      <point x="424" y="648" type="curve" smooth="yes"/>
      <point x="408" y="664"/>
      <point x="384" y="672"/>
      <point x="352" y="672" type="curve" smooth="yes"/>
      <point x="336" y="672" type="line"/>
      <point x="256" y="592" type="line"/>
      <point x="256" y="576" type="line"/>
      <point x="288" y="576" type="line" smooth="yes"/>
      <point x="299" y="576"/>
      <point x="307" y="573"/>
      <point x="312" y="568" type="curve" smooth="yes"/>
      <point x="317" y="563"/>
      <point x="320" y="555"/>
      <point x="320" y="544" type="curve" smooth="yes"/>
      <point x="320" y="288" type="line"/>
      <point x="224" y="288" type="line" smooth="yes"/>
      <point x="213" y="288"/>
      <point x="205" y="291"/>
      <point x="200" y="296" type="curve" smooth="yes"/>
      <point x="195" y="301"/>
      <point x="192" y="309"/>
      <point x="192" y="320" type="curve" smooth="yes"/>
      <point x="192" y="576" type="line" smooth="yes"/>
      <point x="192" y="608"/>
      <point x="184" y="632"/>
      <point x="168" y="648" type="curve" smooth="yes"/>
      <point x="152" y="664"/>
      <point x="128" y="672"/>
      <point x="96" y="672" type="curve" smooth="yes"/>
      <point x="80" y="672" type="line"/>
      <point x="0" y="592" type="line"/>
      <point x="0" y="576" type="line"/>
      <point x="32" y="576" type="line" smooth="yes"/>
      <point x="43" y="576"/>
      <point x="51" y="573"/>
      <point x="56" y="568" type="curve" smooth="yes"/>
      <point x="61" y="563"/>
      <point x="64" y="555"/>
      <point x="64" y="544" type="curve" smooth="yes"/>
      <point x="64" y="288" type="line" smooth="yes"/>
      <point x="64" y="256"/>
      <point x="72" y="232"/>
      <point x="88" y="216" type="curve" smooth="yes"/>
      <point x="104" y="200"/>
      <point x="128" y="192"/>
      <point x="160" y="192" type="curve" smooth="yes"/>
      <point x="320" y="192" type="line"/>
      <point x="320" y="160" type="line" smooth="yes"/>
      <point x="320" y="144"/>
      <point x="319" y="133"/>
      <point x="316" y="128" type="curve" smooth="yes"/>
      <point x="313" y="123"/>
      <point x="309" y="118"/>
      <point x="304" y="113" type="curve" smooth="yes"/>
      <point x="208" y="17" type="line"/>
    </contour>
  </outline>
</glyph>
<glyph name="five" format="1">
  <advance width="384"/>
  <unicode hex="0035"/>
  <outline>
    <contour>
      <point x="32" y="0" type="line"/>
      <point x="160" y="0" type="line"/>
      <point x="240" y="80" type="line" smooth="yes"/>
      <point x="277" y="119"/>
      <point x="305" y="155"/>
      <point x="324" y="188" type="curve" smooth="yes"/>
      <point x="343" y="221"/>
      <point x="352" y="260"/>
      <point x="352" y="305" type="curve" smooth="yes"/>
      <point x="352" y="347"/>
      <point x="337" y="386"/>
      <point x="306" y="423" type="curve" smooth="yes"/>
      <point x="275" y="460"/>
      <point x="219" y="479"/>
      <point x="138" y="481" type="curve"/>
      <point x="145" y="491"/>
      <point x="150" y="502"/>
      <point x="154" y="514" type="curve" smooth="yes"/>
      <point x="158" y="526"/>
      <point x="160" y="542"/>
      <point x="160" y="561" type="curve" smooth="yes"/>
      <point x="160" y="577" type="line"/>
      <point x="272" y="577" type="line"/>
      <point x="352" y="657" type="line"/>
      <point x="352" y="673" type="line"/>
      <point x="112" y="673" type="line"/>
      <point x="32" y="593" type="line"/>
      <point x="32" y="385" type="line"/>
      <point x="48" y="385" type="line" smooth="yes"/>
      <point x="123" y="385"/>
      <point x="171" y="376"/>
      <point x="192" y="357" type="curve" smooth="yes"/>
      <point x="213" y="338"/>
      <point x="224" y="310"/>
      <point x="224" y="273" type="curve" smooth="yes"/>
      <point x="224" y="233"/>
      <point x="219" y="200"/>
      <point x="208" y="174" type="curve" smooth="yes"/>
      <point x="197" y="148"/>
      <point x="178" y="122"/>
      <point x="151" y="97" type="curve"/>
      <point x="112" y="97" type="line"/>
      <point x="32" y="17" type="line"/>
    </contour>
  </outline>
</glyph>
<glyph name="six" format="1">
  <advance width="448"/>
  <unicode hex="0036"/>
  <outline>
    <contour>
      <point x="160" y="288" type="line"/>
      <point x="160" y="384" type="line"/>
      <point x="256" y="384" type="line" smooth="yes"/>
      <point x="267" y="384"/>
      <point x="275" y="381"/>
      <point x="280" y="376" type="curve" smooth="yes"/>
      <point x="285" y="371"/>
      <point x="288" y="363"/>
      <point x="288" y="352" type="curve" smooth="yes"/>
      <point x="288" y="112" type="line" smooth="yes"/>
      <point x="288" y="109"/>
      <point x="288" y="106"/>
      <point x="288" y="103" type="curve" smooth="yes"/>
      <point x="288" y="100"/>
      <point x="288" y="98"/>
      <point x="287" y="97" type="curve"/>
      <point x="237" y="102"/>
      <point x="203" y="120"/>
      <point x="186" y="152" type="curve" smooth="yes"/>
      <point x="169" y="184"/>
      <point x="160" y="229"/>
      <point x="160" y="287" type="curve" smooth="yes"/>
    </contour>
    <contour>
      <point x="352" y="47" type="line" smooth="yes"/>
      <point x="373" y="68"/>
      <point x="389" y="87"/>
      <point x="400" y="103" type="curve" smooth="yes"/>
      <point x="411" y="119"/>
      <point x="416" y="143"/>
      <point x="416" y="175" type="curve" smooth="yes"/>
      <point x="416" y="383" type="line" smooth="yes"/>
      <point x="416" y="415"/>
      <point x="408" y="439"/>
      <point x="392" y="455" type="curve" smooth="yes"/>
      <point x="376" y="471"/>
      <point x="352" y="479"/>
      <point x="320" y="479" type="curve" smooth="yes"/>
      <point x="160" y="479" type="line"/>
      <point x="160" y="511" type="line" smooth="yes"/>
      <point x="160" y="527"/>
      <point x="161" y="538"/>
      <point x="164" y="543" type="curve" smooth="yes"/>
      <point x="167" y="548"/>
      <point x="171" y="553"/>
      <point x="176" y="558" type="curve" smooth="yes"/>
      <point x="192" y="574" type="line"/>
      <point x="304" y="574" type="line"/>
      <point x="384" y="654" type="line"/>
      <point x="384" y="670" type="line"/>
      <point x="192" y="670" type="line"/>
      <point x="96" y="574" type="line" smooth="yes"/>
      <point x="75" y="553"/>
      <point x="59" y="534"/>
      <point x="48" y="518" type="curve" smooth="yes"/>
      <point x="37" y="502"/>
      <point x="32" y="478"/>
      <point x="32" y="446" type="curve" smooth="yes"/>
      <point x="32" y="254" type="line" smooth="yes"/>
      <point x="32" y="175"/>
      <point x="46" y="114"/>
      <point x="75" y="71" type="curve" smooth="yes"/>
      <point x="104" y="28"/>
      <point x="154" y="4"/>
      <point x="225" y="-1" type="curve"/>
      <point x="225" y="-2" type="line"/>
      <point x="305" y="-2" type="line"/>
    </contour>
  </outline>
</glyph>
<glyph name="seven" format="1">
  <advance width="384"/>
  <unicode hex="0037"/>
  <outline>
    <contour>
      <point x="240" y="0" type="line"/>
      <point x="320" y="80" type="line"/>
      <point x="320" y="96" type="line"/>
      <point x="288" y="96" type="line" smooth="yes"/>
      <point x="245" y="96"/>
      <point x="218" y="117"/>
      <point x="207" y="160" type="curve" smooth="yes"/>
      <point x="196" y="203"/>
      <point x="191" y="235"/>
      <point x="191" y="256" type="curve" smooth="yes"/>
      <point x="191" y="297"/>
      <point x="198" y="349"/>
      <point x="211" y="411" type="curve" smooth="yes"/>
      <point x="224" y="473"/>
      <point x="260" y="533"/>
      <point x="319" y="592" type="curve" smooth="yes"/>
      <point x="383" y="656" type="line"/>
      <point x="383" y="672" type="line"/>
      <point x="79" y="672" type="line"/>
      <point x="-1" y="592" type="line"/>
      <point x="-1" y="576" type="line"/>
      <point x="223" y="576" type="line"/>
      <point x="175" y="528"/>
      <point x="136" y="473"/>
      <point x="107" y="412" type="curve" smooth="yes"/>
      <point x="78" y="351"/>
      <point x="63" y="278"/>
      <point x="63" y="193" type="curve" smooth="yes"/>
      <point x="63" y="150"/>
      <point x="74" y="107"/>
      <point x="95" y="64" type="curve" smooth="yes"/>
      <point x="116" y="21"/>
      <point x="159" y="0"/>
      <point x="223" y="0" type="curve" smooth="yes"/>
    </contour>
  </outline>
</glyph>
<glyph name="eight" format="1">
  <advance width="448"/>
  <unicode hex="0038"/>
  <outline>
    <contour>
      <point x="240" y="416" type="line"/>
      <point x="176" y="480" type="line" smooth="yes"/>
      <point x="155" y="501"/>
      <point x="142" y="517"/>
      <point x="137" y="528" type="curve" smooth="yes"/>
      <point x="132" y="539"/>
      <point x="129" y="555"/>
      <point x="129" y="576" type="curve"/>
      <point x="257" y="576" type="line" smooth="yes"/>
      <point x="268" y="576"/>
      <point x="276" y="573"/>
      <point x="281" y="568" type="curve" smooth="yes"/>
      <point x="286" y="563"/>
      <point x="289" y="555"/>
      <point x="289" y="544" type="curve" smooth="yes"/>
      <point x="289" y="528" type="line" smooth="yes"/>
      <point x="289" y="517"/>
      <point x="286" y="501"/>
      <point x="281" y="480" type="curve" smooth="yes"/>
      <point x="276" y="459"/>
      <point x="263" y="438"/>
      <point x="242" y="417" type="curve"/>
    </contour>
    <contour>
      <point x="194" y="97" type="line" smooth="yes"/>
      <point x="183" y="97"/>
      <point x="175" y="100"/>
      <point x="170" y="105" type="curve" smooth="yes"/>
      <point x="165" y="110"/>
      <point x="162" y="118"/>
      <point x="162" y="129" type="curve" smooth="yes"/>
      <point x="162" y="145" type="line" smooth="yes"/>
      <point x="162" y="156"/>
      <point x="166" y="171"/>
      <point x="174" y="190" type="curve" smooth="yes"/>
      <point x="182" y="209"/>
      <point x="194" y="226"/>
      <point x="210" y="242" type="curve" smooth="yes"/>
      <point x="226" y="258" type="line"/>
      <point x="274" y="210" type="line" smooth="yes"/>
      <point x="295" y="189"/>
      <point x="308" y="173"/>
      <point x="313" y="162" type="curve" smooth="yes"/>
      <point x="318" y="151"/>
      <point x="321" y="135"/>
      <point x="321" y="114" type="curve" smooth="yes"/>
      <point x="321" y="98" type="line"/>
    </contour>
    <contour>
      <point x="129" y="2" type="line"/>
      <point x="337" y="2" type="line"/>
      <point x="417" y="82" type="line"/>
      <point x="417" y="146" type="line" smooth="yes"/>
      <point x="417" y="189"/>
      <point x="412" y="221"/>
      <point x="401" y="242" type="curve" smooth="yes"/>
      <point x="390" y="263"/>
      <point x="374" y="284"/>
      <point x="353" y="305" type="curve" smooth="yes"/>
      <point x="297" y="361" type="line"/>
      <point x="328" y="393"/>
      <point x="356" y="429"/>
      <point x="381" y="470" type="curve" smooth="yes"/>
      <point x="406" y="511"/>
      <point x="418" y="547"/>
      <point x="418" y="578" type="curve" smooth="yes"/>
      <point x="418" y="610"/>
      <point x="410" y="634"/>
      <point x="394" y="650" type="curve" smooth="yes"/>
      <point x="378" y="666"/>
      <point x="354" y="674"/>
      <point x="322" y="674" type="curve" smooth="yes"/>
      <point x="114" y="674" type="line"/>
      <point x="34" y="594" type="line"/>
      <point x="34" y="546" type="line" smooth="yes"/>
      <point x="34" y="503"/>
      <point x="39" y="471"/>
      <point x="50" y="450" type="curve" smooth="yes"/>
      <point x="61" y="429"/>
      <point x="77" y="408"/>
      <point x="98" y="387" type="curve" smooth="yes"/>
      <point x="170" y="315" type="line"/>
      <point x="162" y="307" type="line" smooth="yes"/>
      <point x="135" y="280"/>
      <point x="107" y="247"/>
      <point x="78" y="207" type="curve" smooth="yes"/>
      <point x="49" y="167"/>
      <point x="34" y="131"/>
      <point x="34" y="99" type="curve" smooth="yes"/>
      <point x="34" y="67"/>
      <point x="42" y="43"/>
      <point x="58" y="27" type="curve" smooth="yes"/>
      <point x="74" y="11"/>
      <point x="98" y="3"/>
      <point x="130" y="3" type="curve"/>
    </contour>
  </outline>
</glyph>
<glyph name="nine" format="1">
  <advance width="448"/>
  <unicode hex="0039"/>
  <outline>
    <contour>
      <point x="288" y="384" type="curve"/>
      <point x="192" y="384" type="line" smooth="yes"/>
      <point x="181" y="384"/>
      <point x="173" y="387"/>
      <point x="168" y="392" type="curve" smooth="yes"/>
      <point x="163" y="397"/>
      <point x="160" y="405"/>
      <point x="160" y="416" type="curve" smooth="yes"/>
      <point x="160" y="560" type="line" smooth="yes"/>
      <point x="160" y="563"/>
      <point x="160" y="566"/>
      <point x="160" y="568" type="curve" smooth="yes"/>
      <point x="160" y="570"/>
      <point x="160" y="572"/>
      <point x="160" y="574" type="curve"/>
      <point x="211" y="569"/>
      <point x="245" y="551"/>
      <point x="262" y="519" type="curve" smooth="yes"/>
      <point x="279" y="487"/>
      <point x="288" y="442"/>
    </contour>
    <contour>
      <point x="32" y="0" type="line"/>
      <point x="256" y="0" type="line"/>
      <point x="352" y="96" type="line" smooth="yes"/>
      <point x="373" y="117"/>
      <point x="389" y="136"/>
      <point x="400" y="152" type="curve" smooth="yes"/>
      <point x="411" y="168"/>
      <point x="416" y="192"/>
      <point x="416" y="224" type="curve" smooth="yes"/>
      <point x="416" y="416" type="line" smooth="yes"/>
      <point x="416" y="495"/>
      <point x="402" y="556"/>
      <point x="373" y="599" type="curve" smooth="yes"/>
      <point x="344" y="642"/>
      <point x="294" y="666"/>
      <point x="223" y="671" type="curve"/>
      <point x="223" y="672" type="line"/>
      <point x="143" y="672" type="line"/>
      <point x="95" y="624" type="line" smooth="yes"/>
      <point x="74" y="603"/>
      <point x="58" y="584"/>
      <point x="47" y="568" type="curve" smooth="yes"/>
      <point x="36" y="552"/>
      <point x="31" y="528"/>
      <point x="31" y="496" type="curve" smooth="yes"/>
      <point x="31" y="384" type="line" smooth="yes"/>
      <point x="31" y="352"/>
      <point x="39" y="328"/>
      <point x="55" y="312" type="curve" smooth="yes"/>
      <point x="71" y="296"/>
      <point x="95" y="288"/>
      <point x="127" y="288" type="curve" smooth="yes"/>
      <point x="287" y="288" type="line"/>
      <point x="287" y="160" type="line" smooth="yes"/>
      <point x="287" y="144"/>
      <point x="286" y="133"/>
      <point x="283" y="128" type="curve" smooth="yes"/>
      <point x="280" y="123"/>
      <point x="276" y="118"/>
      <point x="271" y="113" type="curve" smooth="yes"/>
      <point x="255" y="97" type="line"/>
      <point x="111" y="97" type="line"/>
      <point x="31" y="17" type="line"/>
    </contour>
  </outline>
</glyph>
<glyph name="question" format="1">
  <advance width="240"/>
  <unicode hex="003F"/>
  <outline>
    <contour>
      <point x="240" y="272" type="line"/>
      <point x="240" y="288" type="line"/>
      <point x="208" y="288" type="line" smooth="yes"/>
      <point x="197" y="288"/>
      <point x="189" y="291"/>
      <point x="184" y="296" type="curve" smooth="yes"/>
      <point x="179" y="301"/>
      <point x="176" y="309"/>
      <point x="176" y="320" type="curve" smooth="yes"/>
      <point x="176" y="576" type="line" smooth="yes"/>
      <point x="176" y="608"/>
      <point x="168" y="632"/>
      <point x="152" y="648" type="curve" smooth="yes"/>
      <point x="136" y="664"/>
      <point x="112" y="672"/>
      <point x="80" y="672" type="curve"/>
      <point x="0" y="592" type="line"/>
      <point x="0" y="576" type="line"/>
      <point x="32" y="576" type="line" smooth="yes"/>
      <point x="43" y="576"/>
      <point x="51" y="573"/>
      <point x="56" y="568" type="curve" smooth="yes"/>
      <point x="61" y="563"/>
      <point x="64" y="555"/>
      <point x="64" y="544" type="curve" smooth="yes"/>
      <point x="64" y="288" type="line" smooth="yes"/>
      <point x="64" y="256"/>
      <point x="72" y="232"/>
      <point x="88" y="216" type="curve" smooth="yes"/>
      <point x="104" y="200"/>
      <point x="128" y="192"/>
      <point x="160" y="192" type="curve"/>
    </contour>
    <contour>
      <point x="64" y="48" type="line"/>
      <point x="64" y="32" type="line"/>
      <point x="136" y="-40" type="line"/>
      <point x="152" y="-40" type="line"/>
      <point x="224" y="32" type="line"/>
      <point x="224" y="48" type="line"/>
      <point x="152" y="120" type="line"/>
      <point x="136" y="120" type="line"/>
    </contour>
  </outline>
</glyph>
<glyph name="B" format="1">
  <advance width="480"/>
  <unicode hex="0042"/>
  <outline>
    <contour>
      <point x="0" y="0" type="line"/>
      <point x="288" y="0" type="line"/>
      <point x="384" y="96" type="line" smooth="yes"/>
      <point x="405" y="117"/>
      <point x="421" y="136"/>
      <point x="432" y="152" type="curve" smooth="yes"/>
      <point x="443" y="168"/>
      <point x="448" y="192"/>
      <point x="448" y="224" type="curve" smooth="yes"/>
      <point x="448" y="320" type="line" smooth="yes"/>
      <point x="448" y="352"/>
      <point x="440" y="376"/>
      <point x="424" y="392" type="curve" smooth="yes"/>
      <point x="408" y="408"/>
      <point x="384" y="416"/>
      <point x="352" y="416" type="curve" smooth="yes"/>
      <point x="337" y="416" type="line"/>
      <point x="359" y="437"/>
      <point x="383" y="462"/>
      <point x="409" y="491" type="curve" smooth="yes"/>
      <point x="435" y="520"/>
      <point x="448" y="548"/>
      <point x="448" y="576" type="curve" smooth="yes"/>
      <point x="448" y="608"/>
      <point x="440" y="632"/>
      <point x="424" y="648" type="curve" smooth="yes"/>
      <point x="408" y="664"/>
      <point x="384" y="672"/>
      <point x="352" y="672" type="curve" smooth="yes"/>
      <point x="80" y="672" type="line"/>
      <point x="0" y="592" type="line"/>
      <point x="0" y="576" type="line"/>
      <point x="128" y="576" type="line"/>
      <point x="64" y="512" type="line"/>
      <point x="64" y="112" type="line" smooth="yes"/>
      <point x="64" y="96"/>
      <point x="63" y="85"/>
      <point x="60" y="80" type="curve" smooth="yes"/>
      <point x="57" y="75"/>
      <point x="53" y="70"/>
      <point x="48" y="65" type="curve" smooth="yes"/>
      <point x="0" y="17" type="line"/>
    </contour>
    <contour>
      <point x="288" y="577" type="line" smooth="yes"/>
      <point x="299" y="577"/>
      <point x="307" y="574"/>
      <point x="312" y="569" type="curve" smooth="yes"/>
      <point x="317" y="564"/>
      <point x="320" y="556"/>
      <point x="320" y="545" type="curve" smooth="yes"/>
      <point x="320" y="529" type="line" smooth="yes"/>
      <point x="320" y="518"/>
      <point x="315" y="507"/>
      <point x="304" y="496" type="curve" smooth="yes"/>
      <point x="293" y="485"/>
      <point x="282" y="474"/>
      <point x="271" y="463" type="curve" smooth="yes"/>
      <point x="191" y="383" type="line"/>
      <point x="191" y="575" type="line"/>
    </contour>
    <contour>
      <point x="191" y="175" type="line"/>
      <point x="191" y="271" type="line"/>
      <point x="239" y="319" type="line"/>
      <point x="287" y="319" type="line" smooth="yes"/>
      <point x="298" y="319"/>
      <point x="306" y="316"/>
      <point x="311" y="311" type="curve" smooth="yes"/>
      <point x="316" y="306"/>
      <point x="319" y="298"/>
      <point x="319" y="287" type="curve" smooth="yes"/>
      <point x="319" y="159" type="line" smooth="yes"/>
      <point x="319" y="143"/>
      <point x="318" y="132"/>
      <point x="315" y="127" type="curve" smooth="yes"/>
      <point x="312" y="122"/>
      <point x="308" y="117"/>
      <point x="303" y="112" type="curve" smooth="yes"/>
      <point x="287" y="96" type="line"/>
      <point x="170" y="96" type="line"/>
      <point x="177" y="106"/>
      <point x="182" y="117"/>
      <point x="185" y="130" type="curve" smooth="yes"/>
      <point x="188" y="143"/>
      <point x="190" y="158"/>
      <point x="190" y="176" type="curve"/>
    </contour>
  </outline>
</glyph>
<glyph name="C" format="1">
  <advance width="384"/>
  <unicode hex="0043"/>
  <outline>
    <contour>
      <point x="384" y="80" type="line"/>
      <point x="384" y="96" type="line"/>
      <point x="320" y="96" type="line" smooth="yes"/>
      <point x="256" y="96"/>
      <point x="213" y="112"/>
      <point x="192" y="144" type="curve" smooth="yes"/>
      <point x="171" y="176"/>
      <point x="160" y="224"/>
      <point x="160" y="288" type="curve" smooth="yes"/>
      <point x="160" y="512" type="line" smooth="yes"/>
      <point x="160" y="528"/>
      <point x="161" y="539"/>
      <point x="164" y="544" type="curve" smooth="yes"/>
      <point x="167" y="549"/>
      <point x="171" y="554"/>
      <point x="176" y="559" type="curve" smooth="yes"/>
      <point x="192" y="575" type="line"/>
      <point x="304" y="575" type="line"/>
      <point x="384" y="655" type="line"/>
      <point x="384" y="671" type="line"/>
      <point x="192" y="671" type="line"/>
      <point x="96" y="575" type="line" smooth="yes"/>
      <point x="75" y="554"/>
      <point x="59" y="535"/>
      <point x="48" y="519" type="curve" smooth="yes"/>
      <point x="37" y="503"/>
      <point x="32" y="479"/>
      <point x="32" y="447" type="curve" smooth="yes"/>
      <point x="32" y="255" type="line" smooth="yes"/>
      <point x="32" y="170"/>
      <point x="49" y="106"/>
      <point x="82" y="63" type="curve" smooth="yes"/>
      <point x="115" y="20"/>
      <point x="173" y="-1"/>
      <point x="256" y="-1" type="curve" smooth="yes"/>
      <point x="304" y="-1" type="line"/>
    </contour>
  </outline>
</glyph>
<glyph name="D" format="1">
  <advance width="480"/>
  <unicode hex="0044"/>
  <outline>
    <contour>
      <point x="192" y="176" type="line"/>
      <point x="192" y="576" type="line"/>
      <point x="288" y="576" type="line" smooth="yes"/>
      <point x="299" y="576"/>
      <point x="307" y="573"/>
      <point x="312" y="568" type="curve" smooth="yes"/>
      <point x="317" y="563"/>
      <point x="320" y="555"/>
      <point x="320" y="544" type="curve" smooth="yes"/>
      <point x="320" y="160" type="line" smooth="yes"/>
      <point x="320" y="144"/>
      <point x="319" y="133"/>
      <point x="316" y="128" type="curve" smooth="yes"/>
      <point x="313" y="123"/>
      <point x="309" y="118"/>
      <point x="304" y="113" type="curve" smooth="yes"/>
      <point x="288" y="97" type="line"/>
      <point x="171" y="97" type="line"/>
      <point x="178" y="107"/>
      <point x="183" y="118"/>
      <point x="186" y="131" type="curve" smooth="yes"/>
      <point x="189" y="144"/>
      <point x="191" y="159"/>
      <point x="191" y="177" type="curve"/>
    </contour>
    <contour>
      <point x="-1" y="1" type="line"/>
      <point x="287" y="1" type="line"/>
      <point x="383" y="97" type="line" smooth="yes"/>
      <point x="404" y="118"/>
      <point x="420" y="137"/>
      <point x="431" y="153" type="curve" smooth="yes"/>
      <point x="442" y="169"/>
      <point x="447" y="193"/>
      <point x="447" y="225" type="curve" smooth="yes"/>
      <point x="447" y="577" type="line" smooth="yes"/>
      <point x="447" y="609"/>
      <point x="439" y="633"/>
      <point x="423" y="649" type="curve" smooth="yes"/>
      <point x="407" y="665"/>
      <point x="383" y="673"/>
      <point x="351" y="673" type="curve" smooth="yes"/>
      <point x="79" y="673" type="line"/>
      <point x="-1" y="593" type="line"/>
      <point x="-1" y="577" type="line"/>
      <point x="127" y="577" type="line"/>
      <point x="63" y="513" type="line"/>
      <point x="63" y="113" type="line" smooth="yes"/>
      <point x="63" y="97"/>
      <point x="62" y="86"/>
      <point x="59" y="81" type="curve" smooth="yes"/>
      <point x="56" y="76"/>
      <point x="52" y="71"/>
      <point x="47" y="66" type="curve" smooth="yes"/>
      <point x="-1" y="18" type="line"/>
    </contour>
  </outline>
</glyph>
<glyph name="F" format="1">
  <advance width="384"/>
  <unicode hex="0046"/>
  <outline>
    <contour>
      <point x="160" y="0" type="line"/>
      <point x="176" y="0" type="line"/>
      <point x="256" y="80" type="line"/>
      <point x="256" y="96" type="line"/>
      <point x="224" y="96" type="line" smooth="yes"/>
      <point x="215" y="96"/>
      <point x="207" y="99"/>
      <point x="201" y="105" type="curve" smooth="yes"/>
      <point x="195" y="111"/>
      <point x="192" y="119"/>
      <point x="192" y="128" type="curve" smooth="yes"/>
      <point x="192" y="288" type="line"/>
      <point x="240" y="288" type="line"/>
      <point x="320" y="368" type="line"/>
      <point x="320" y="384" type="line"/>
      <point x="192" y="384" type="line"/>
      <point x="192" y="576" type="line"/>
      <point x="304" y="576" type="line"/>
      <point x="384" y="656" type="line"/>
      <point x="384" y="672" type="line"/>
      <point x="80" y="672" type="line"/>
      <point x="0" y="592" type="line"/>
      <point x="0" y="576" type="line"/>
      <point x="128" y="576" type="line"/>
      <point x="64" y="512" type="line"/>
      <point x="64" y="368" type="line"/>
      <point x="0" y="304" type="line"/>
      <point x="0" y="288" type="line"/>
      <point x="64" y="288" type="line"/>
      <point x="64" y="96" type="line" smooth="yes"/>
      <point x="64" y="67"/>
      <point x="73" y="44"/>
      <point x="90" y="27" type="curve" smooth="yes"/>
      <point x="107" y="10"/>
      <point x="130" y="1"/>
      <point x="159" y="1" type="curve"/>
    </contour>
  </outline>
</glyph>
<glyph name="G" format="1">
  <advance width="448"/>
  <unicode hex="0047"/>
  <outline>
    <contour>
      <point x="352" y="96" type="line" smooth="yes"/>
      <point x="373" y="117"/>
      <point x="389" y="136"/>
      <point x="400" y="152" type="curve" smooth="yes"/>
      <point x="411" y="168"/>
      <point x="416" y="192"/>
      <point x="416" y="224" type="curve" smooth="yes"/>
      <point x="416" y="480" type="line"/>
      <point x="272" y="480" type="line"/>
      <point x="192" y="400" type="line"/>
      <point x="192" y="384" type="line"/>
      <point x="288" y="384" type="line"/>
      <point x="288" y="160" type="line" smooth="yes"/>
      <point x="288" y="144"/>
      <point x="287" y="133"/>
      <point x="284" y="128" type="curve" smooth="yes"/>
      <point x="281" y="123"/>
      <point x="277" y="118"/>
      <point x="272" y="113" type="curve" smooth="yes"/>
      <point x="262" y="103" type="line"/>
      <point x="222" y="112"/>
      <point x="195" y="132"/>
      <point x="181" y="163" type="curve" smooth="yes"/>
      <point x="167" y="194"/>
      <point x="160" y="236"/>
      <point x="160" y="289" type="curve" smooth="yes"/>
      <point x="160" y="513" type="line" smooth="yes"/>
      <point x="160" y="529"/>
      <point x="161" y="540"/>
      <point x="164" y="545" type="curve" smooth="yes"/>
      <point x="167" y="550"/>
      <point x="171" y="555"/>
      <point x="176" y="560" type="curve" smooth="yes"/>
      <point x="192" y="576" type="line"/>
      <point x="304" y="576" type="line"/>
      <point x="384" y="656" type="line"/>
      <point x="384" y="672" type="line"/>
      <point x="192" y="672" type="line"/>
      <point x="96" y="576" type="line" smooth="yes"/>
      <point x="75" y="555"/>
      <point x="59" y="536"/>
      <point x="48" y="520" type="curve" smooth="yes"/>
      <point x="37" y="504"/>
      <point x="32" y="480"/>
      <point x="32" y="448" type="curve" smooth="yes"/>
      <point x="32" y="256" type="line" smooth="yes"/>
      <point x="32" y="171"/>
      <point x="49" y="107"/>
      <point x="82" y="64" type="curve" smooth="yes"/>
      <point x="115" y="21"/>
      <point x="173" y="0"/>
      <point x="256" y="0" type="curve"/>
    </contour>
  </outline>
</glyph>
<glyph name="H" format="1">
  <advance width="512"/>
  <unicode hex="0048"/>
  <outline>
    <contour>
      <point x="160" y="0" type="curve" smooth="yes"/>
      <point x="176" y="0" type="line"/>
      <point x="256" y="80" type="line"/>
      <point x="256" y="96" type="line"/>
      <point x="224" y="96" type="line" smooth="yes"/>
      <point x="213" y="96"/>
      <point x="205" y="99"/>
      <point x="200" y="104" type="curve" smooth="yes"/>
      <point x="195" y="109"/>
      <point x="192" y="117"/>
      <point x="192" y="128" type="curve" smooth="yes"/>
      <point x="192" y="288" type="line"/>
      <point x="320" y="288" type="line"/>
      <point x="320" y="96" type="line" smooth="yes"/>
      <point x="320" y="64"/>
      <point x="328" y="40"/>
      <point x="344" y="24" type="curve" smooth="yes"/>
      <point x="360" y="8"/>
      <point x="384" y="0"/>
      <point x="416" y="0" type="curve" smooth="yes"/>
      <point x="432" y="0" type="line"/>
      <point x="512" y="80" type="line"/>
      <point x="512" y="96" type="line"/>
      <point x="480" y="96" type="line" smooth="yes"/>
      <point x="469" y="96"/>
      <point x="461" y="99"/>
      <point x="456" y="104" type="curve" smooth="yes"/>
      <point x="451" y="109"/>
      <point x="448" y="117"/>
      <point x="448" y="128" type="curve" smooth="yes"/>
      <point x="448" y="576" type="line" smooth="yes"/>
      <point x="448" y="608"/>
      <point x="440" y="632"/>
      <point x="424" y="648" type="curve" smooth="yes"/>
      <point x="408" y="664"/>
      <point x="384" y="672"/>
      <point x="352" y="672" type="curve" smooth="yes"/>
      <point x="336" y="672" type="line"/>
      <point x="256" y="592" type="line"/>
      <point x="256" y="576" type="line"/>
      <point x="288" y="576" type="line" smooth="yes"/>
      <point x="299" y="576"/>
      <point x="307" y="573"/>
      <point x="312" y="568" type="curve" smooth="yes"/>
      <point x="317" y="563"/>
      <point x="320" y="555"/>
      <point x="320" y="544" type="curve" smooth="yes"/>
      <point x="320" y="384" type="line"/>
      <point x="192" y="384" type="line"/>
      <point x="192" y="576" type="line" smooth="yes"/>
      <point x="192" y="608"/>
      <point x="184" y="632"/>
      <point x="168" y="648" type="curve" smooth="yes"/>
      <point x="152" y="664"/>
      <point x="128" y="672"/>
      <point x="96" y="672" type="curve" smooth="yes"/>
      <point x="80" y="672" type="line"/>
      <point x="0" y="592" type="line"/>
      <point x="0" y="576" type="line"/>
      <point x="32" y="576" type="line" smooth="yes"/>
      <point x="43" y="576"/>
      <point x="51" y="573"/>
      <point x="56" y="568" type="curve" smooth="yes"/>
      <point x="61" y="563"/>
      <point x="64" y="555"/>
      <point x="64" y="544" type="curve" smooth="yes"/>
      <point x="64" y="368" type="line"/>
      <point x="0" y="304" type="line"/>
      <point x="0" y="288" type="line"/>
      <point x="64" y="288" type="line"/>
      <point x="64" y="96" type="line" smooth="yes"/>
      <point x="64" y="64"/>
      <point x="72" y="40"/>
      <point x="88" y="24" type="curve" smooth="yes"/>
      <point x="104" y="8"/>
      <point x="128" y="0"/>
    </contour>
  </outline>
</glyph>
<glyph name="I" format="1">
  <advance width="256"/>
  <unicode hex="0049"/>
  <outline>
    <contour>
      <point x="176" y="0" type="line"/>
      <point x="256" y="80" type="line"/>
      <point x="256" y="96" type="line"/>
      <point x="224" y="96" type="line" smooth="yes"/>
      <point x="213" y="96"/>
      <point x="205" y="99"/>
      <point x="200" y="104" type="curve" smooth="yes"/>
      <point x="195" y="109"/>
      <point x="192" y="117"/>
      <point x="192" y="128" type="curve" smooth="yes"/>
      <point x="192" y="576" type="line" smooth="yes"/>
      <point x="192" y="608"/>
      <point x="184" y="632"/>
      <point x="168" y="648" type="curve" smooth="yes"/>
      <point x="152" y="664"/>
      <point x="128" y="672"/>
      <point x="96" y="672" type="curve" smooth="yes"/>
      <point x="80" y="672" type="line"/>
      <point x="0" y="592" type="line"/>
      <point x="0" y="576" type="line"/>
      <point x="32" y="576" type="line" smooth="yes"/>
      <point x="43" y="576"/>
      <point x="51" y="573"/>
      <point x="56" y="568" type="curve" smooth="yes"/>
      <point x="61" y="563"/>
      <point x="64" y="555"/>
      <point x="64" y="544" type="curve" smooth="yes"/>
      <point x="64" y="96" type="line" smooth="yes"/>
      <point x="64" y="64"/>
      <point x="72" y="40"/>
      <point x="88" y="24" type="curve" smooth="yes"/>
      <point x="104" y="8"/>
      <point x="128" y="0"/>
      <point x="160" y="0" type="curve" smooth="yes"/>
    </contour>
  </outline>
</glyph>
<glyph name="J" format="1">
  <advance width="384"/>
  <unicode hex="004A"/>
  <outline>
    <contour>
      <point x="0" y="0" type="line"/>
      <point x="144" y="0" type="line"/>
      <point x="192" y="48" type="line" smooth="yes"/>
      <point x="213" y="69"/>
      <point x="229" y="88"/>
      <point x="240" y="104" type="curve" smooth="yes"/>
      <point x="251" y="120"/>
      <point x="256" y="144"/>
      <point x="256" y="176" type="curve" smooth="yes"/>
      <point x="256" y="576" type="line"/>
      <point x="304" y="576" type="line"/>
      <point x="384" y="656" type="line"/>
      <point x="384" y="672" type="line"/>
      <point x="144" y="672" type="line"/>
      <point x="64" y="592" type="line"/>
      <point x="64" y="576" type="line"/>
      <point x="192" y="576" type="line"/>
      <point x="128" y="512" type="line"/>
      <point x="128" y="112" type="line" smooth="yes"/>
      <point x="128" y="109"/>
      <point x="128" y="106"/>
      <point x="128" y="103" type="curve" smooth="yes"/>
      <point x="128" y="100"/>
      <point x="128" y="98"/>
      <point x="127" y="96" type="curve"/>
      <point x="80" y="96" type="line"/>
      <point x="0" y="16" type="line"/>
    </contour>
  </outline>
</glyph>
<glyph name="K" format="1">
  <advance width="512"/>
  <unicode hex="004B"/>
  <outline>
    <contour>
      <point x="0" y="0" type="line"/>
      <point x="176" y="0" type="line"/>
      <point x="256" y="80" type="line"/>
      <point x="256" y="96" type="line"/>
      <point x="171" y="96" type="line"/>
      <point x="178" y="106"/>
      <point x="183" y="117"/>
      <point x="186" y="130" type="curve" smooth="yes"/>
      <point x="189" y="143"/>
      <point x="191" y="158"/>
      <point x="191" y="176" type="curve" smooth="yes"/>
      <point x="191" y="272" type="line"/>
      <point x="239" y="320" type="line"/>
      <point x="287" y="320" type="line" smooth="yes"/>
      <point x="298" y="320"/>
      <point x="306" y="317"/>
      <point x="311" y="312" type="curve" smooth="yes"/>
      <point x="316" y="307"/>
      <point x="319" y="299"/>
      <point x="319" y="288" type="curve" smooth="yes"/>
      <point x="319" y="96" type="line" smooth="yes"/>
      <point x="319" y="64"/>
      <point x="327" y="40"/>
      <point x="343" y="24" type="curve" smooth="yes"/>
      <point x="359" y="8"/>
      <point x="383" y="0"/>
      <point x="415" y="0" type="curve" smooth="yes"/>
      <point x="431" y="0" type="line"/>
      <point x="511" y="80" type="line"/>
      <point x="511" y="96" type="line"/>
      <point x="479" y="96" type="line" smooth="yes"/>
      <point x="468" y="96"/>
      <point x="460" y="99"/>
      <point x="455" y="104" type="curve" smooth="yes"/>
      <point x="450" y="109"/>
      <point x="447" y="117"/>
      <point x="447" y="128" type="curve" smooth="yes"/>
      <point x="447" y="320" type="line" smooth="yes"/>
      <point x="447" y="352"/>
      <point x="439" y="376"/>
      <point x="423" y="392" type="curve" smooth="yes"/>
      <point x="407" y="408"/>
      <point x="383" y="416"/>
      <point x="351" y="416" type="curve" smooth="yes"/>
      <point x="336" y="416" type="line"/>
      <point x="358" y="437"/>
      <point x="382" y="462"/>
      <point x="408" y="491" type="curve" smooth="yes"/>
      <point x="434" y="520"/>
      <point x="447" y="548"/>
      <point x="447" y="576" type="curve" smooth="yes"/>
      <point x="447" y="608"/>
      <point x="439" y="632"/>
      <point x="423" y="648" type="curve" smooth="yes"/>
      <point x="407" y="664"/>
      <point x="383" y="672"/>
      <point x="351" y="672" type="curve" smooth="yes"/>
      <point x="335" y="672" type="line"/>
      <point x="255" y="592" type="line"/>
      <point x="255" y="576" type="line"/>
      <point x="287" y="576" type="line" smooth="yes"/>
      <point x="298" y="576"/>
      <point x="306" y="573"/>
      <point x="311" y="568" type="curve" smooth="yes"/>
      <point x="316" y="563"/>
      <point x="319" y="555"/>
      <point x="319" y="544" type="curve" smooth="yes"/>
      <point x="319" y="528"/>
      <point x="314" y="513"/>
      <point x="303" y="500" type="curve" smooth="yes"/>
      <point x="292" y="487"/>
      <point x="281" y="475"/>
      <point x="270" y="464" type="curve" smooth="yes"/>
      <point x="190" y="384" type="line"/>
      <point x="190" y="576" type="line" smooth="yes"/>
      <point x="190" y="608"/>
      <point x="182" y="632"/>
      <point x="166" y="648" type="curve" smooth="yes"/>
      <point x="150" y="664"/>
      <point x="126" y="672"/>
      <point x="94" y="672" type="curve" smooth="yes"/>
      <point x="78" y="672" type="line"/>
      <point x="-2" y="592" type="line"/>
      <point x="-2" y="576" type="line"/>
      <point x="30" y="576" type="line" smooth="yes"/>
      <point x="41" y="576"/>
      <point x="49" y="573"/>
      <point x="54" y="568" type="curve" smooth="yes"/>
      <point x="59" y="563"/>
      <point x="62" y="555"/>
      <point x="62" y="544" type="curve" smooth="yes"/>
      <point x="62" y="112" type="line" smooth="yes"/>
      <point x="62" y="96"/>
      <point x="61" y="85"/>
      <point x="58" y="80" type="curve" smooth="yes"/>
      <point x="55" y="75"/>
      <point x="51" y="70"/>
      <point x="46" y="65" type="curve" smooth="yes"/>
      <point x="-2" y="17" type="line"/>
    </contour>
  </outline>
</glyph>
<glyph name="L" format="1">
  <advance width="384"/>
  <unicode hex="004C"/>
  <outline>
    <contour>
      <point x="0" y="0" type="line"/>
      <point x="304" y="0" type="line"/>
      <point x="384" y="80" type="line"/>
      <point x="384" y="96" type="line"/>
      <point x="171" y="96" type="line"/>
      <point x="178" y="106"/>
      <point x="183" y="117"/>
      <point x="186" y="130" type="curve" smooth="yes"/>
      <point x="189" y="143"/>
      <point x="191" y="158"/>
      <point x="191" y="176" type="curve" smooth="yes"/>
      <point x="191" y="576" type="line"/>
      <point x="239" y="576" type="line"/>
      <point x="319" y="656" type="line"/>
      <point x="319" y="672" type="line"/>
      <point x="79" y="672" type="line"/>
      <point x="-1" y="592" type="line"/>
      <point x="-1" y="576" type="line"/>
      <point x="127" y="576" type="line"/>
      <point x="63" y="512" type="line"/>
      <point x="63" y="112" type="line" smooth="yes"/>
      <point x="63" y="96"/>
      <point x="62" y="85"/>
      <point x="59" y="80" type="curve" smooth="yes"/>
      <point x="56" y="75"/>
      <point x="52" y="70"/>
      <point x="47" y="65" type="curve" smooth="yes"/>
      <point x="-1" y="17" type="line"/>
    </contour>
  </outline>
</glyph>
<glyph name="N" format="1">
  <advance width="512"/>
  <unicode hex="004E"/>
  <outline>
    <contour>
      <point x="0" y="0" type="line"/>
      <point x="176" y="0" type="line"/>
      <point x="256" y="80" type="line"/>
      <point x="256" y="96" type="line"/>
      <point x="171" y="96" type="line"/>
      <point x="178" y="106"/>
      <point x="183" y="117"/>
      <point x="186" y="130" type="curve" smooth="yes"/>
      <point x="189" y="143"/>
      <point x="191" y="158"/>
      <point x="191" y="176" type="curve" smooth="yes"/>
      <point x="191" y="576" type="line"/>
      <point x="287" y="576" type="line" smooth="yes"/>
      <point x="298" y="576"/>
      <point x="306" y="573"/>
      <point x="311" y="568" type="curve" smooth="yes"/>
      <point x="316" y="563"/>
      <point x="319" y="555"/>
      <point x="319" y="544" type="curve" smooth="yes"/>
      <point x="319" y="96" type="line" smooth="yes"/>
      <point x="319" y="64"/>
      <point x="327" y="40"/>
      <point x="343" y="24" type="curve" smooth="yes"/>
      <point x="359" y="8"/>
      <point x="383" y="0"/>
      <point x="415" y="0" type="curve" smooth="yes"/>
      <point x="431" y="0" type="line"/>
      <point x="511" y="80" type="line"/>
      <point x="511" y="96" type="line"/>
      <point x="479" y="96" type="line" smooth="yes"/>
      <point x="468" y="96"/>
      <point x="460" y="99"/>
      <point x="455" y="104" type="curve" smooth="yes"/>
      <point x="450" y="109"/>
      <point x="447" y="117"/>
      <point x="447" y="128" type="curve" smooth="yes"/>
      <point x="447" y="576" type="line" smooth="yes"/>
      <point x="447" y="608"/>
      <point x="439" y="632"/>
      <point x="423" y="648" type="curve" smooth="yes"/>
      <point x="407" y="664"/>
      <point x="383" y="672"/>
      <point x="351" y="672" type="curve" smooth="yes"/>
      <point x="79" y="672" type="line"/>
      <point x="-1" y="592" type="line"/>
      <point x="-1" y="576" type="line"/>
      <point x="127" y="576" type="line"/>
      <point x="63" y="512" type="line"/>
      <point x="63" y="112" type="line" smooth="yes"/>
      <point x="63" y="96"/>
      <point x="62" y="85"/>
      <point x="59" y="80" type="curve" smooth="yes"/>
      <point x="56" y="75"/>
      <point x="52" y="70"/>
      <point x="47" y="65" type="curve" smooth="yes"/>
      <point x="-1" y="17" type="line"/>
    </contour>
  </outline>
</glyph>
<glyph name="O" format="1">
  <advance width="480"/>
  <unicode hex="004F"/>
  <outline>
    <contour>
      <point x="224" y="96" type="line" smooth="yes"/>
      <point x="213" y="96"/>
      <point x="205" y="99"/>
      <point x="200" y="104" type="curve" smooth="yes"/>
      <point x="195" y="109"/>
      <point x="192" y="117"/>
      <point x="192" y="128" type="curve" smooth="yes"/>
      <point x="192" y="576" type="line"/>
      <point x="288" y="576" type="line" smooth="yes"/>
      <point x="299" y="576"/>
      <point x="307" y="573"/>
      <point x="312" y="568" type="curve" smooth="yes"/>
      <point x="317" y="563"/>
      <point x="320" y="555"/>
      <point x="320" y="544" type="curve" smooth="yes"/>
      <point x="320" y="160" type="line" smooth="yes"/>
      <point x="320" y="144"/>
      <point x="319" y="133"/>
      <point x="316" y="128" type="curve" smooth="yes"/>
      <point x="313" y="123"/>
      <point x="309" y="118"/>
      <point x="304" y="113" type="curve" smooth="yes"/>
      <point x="288" y="97" type="line"/>
    </contour>
    <contour>
      <point x="160" y="1" type="curve" smooth="yes"/>
      <point x="288" y="1" type="line"/>
      <point x="384" y="97" type="line" smooth="yes"/>
      <point x="405" y="118"/>
      <point x="421" y="137"/>
      <point x="432" y="153" type="curve" smooth="yes"/>
      <point x="443" y="169"/>
      <point x="448" y="193"/>
      <point x="448" y="225" type="curve" smooth="yes"/>
      <point x="448" y="577" type="line" smooth="yes"/>
      <point x="448" y="609"/>
      <point x="440" y="633"/>
      <point x="424" y="649" type="curve" smooth="yes"/>
      <point x="408" y="665"/>
      <point x="384" y="673"/>
      <point x="352" y="673" type="curve" smooth="yes"/>
      <point x="80" y="673" type="line"/>
      <point x="0" y="593" type="line"/>
      <point x="0" y="577" type="line"/>
      <point x="128" y="577" type="line"/>
      <point x="64" y="513" type="line"/>
      <point x="64" y="97" type="line" smooth="yes"/>
      <point x="64" y="65"/>
      <point x="72" y="41"/>
      <point x="88" y="25" type="curve" smooth="yes"/>
      <point x="104" y="9"/>
      <point x="128" y="1"/>
    </contour>
  </outline>
</glyph>
<glyph name="P" format="1">
  <advance width="480"/>
  <unicode hex="0050"/>
  <outline>
    <contour>
      <point x="160" y="0" type="curve" smooth="yes"/>
      <point x="176" y="0" type="line"/>
      <point x="256" y="80" type="line"/>
      <point x="256" y="96" type="line"/>
      <point x="224" y="96" type="line" smooth="yes"/>
      <point x="213" y="96"/>
      <point x="205" y="99"/>
      <point x="200" y="104" type="curve" smooth="yes"/>
      <point x="195" y="109"/>
      <point x="192" y="117"/>
      <point x="192" y="128" type="curve" smooth="yes"/>
      <point x="192" y="192" type="line"/>
      <point x="288" y="192" type="line"/>
      <point x="384" y="288" type="line" smooth="yes"/>
      <point x="405" y="309"/>
      <point x="421" y="328"/>
      <point x="432" y="344" type="curve" smooth="yes"/>
      <point x="443" y="360"/>
      <point x="448" y="384"/>
      <point x="448" y="416" type="curve" smooth="yes"/>
      <point x="448" y="576" type="line" smooth="yes"/>
      <point x="448" y="608"/>
      <point x="440" y="632"/>
      <point x="424" y="648" type="curve" smooth="yes"/>
      <point x="408" y="664"/>
      <point x="384" y="672"/>
      <point x="352" y="672" type="curve" smooth="yes"/>
      <point x="80" y="672" type="line"/>
      <point x="0" y="592" type="line"/>
      <point x="0" y="576" type="line"/>
      <point x="128" y="576" type="line"/>
      <point x="64" y="512" type="line"/>
      <point x="64" y="272" type="line"/>
      <point x="0" y="208" type="line"/>
      <point x="0" y="192" type="line"/>
      <point x="64" y="192" type="line"/>
      <point x="64" y="96" type="line" smooth="yes"/>
      <point x="64" y="64"/>
      <point x="72" y="40"/>
      <point x="88" y="24" type="curve" smooth="yes"/>
      <point x="104" y="8"/>
      <point x="128" y="0"/>
    </contour>
    <contour>
      <point x="288" y="576" type="line" smooth="yes"/>
      <point x="299" y="576"/>
      <point x="307" y="573"/>
      <point x="312" y="568" type="curve" smooth="yes"/>
      <point x="317" y="563"/>
      <point x="320" y="555"/>
      <point x="320" y="544" type="curve" smooth="yes"/>
      <point x="320" y="352" type="line" smooth="yes"/>
      <point x="320" y="336"/>
      <point x="319" y="325"/>
      <point x="316" y="320" type="curve" smooth="yes"/>
      <point x="313" y="315"/>
      <point x="309" y="310"/>
      <point x="304" y="305" type="curve" smooth="yes"/>
      <point x="288" y="289" type="line"/>
      <point x="192" y="289" type="line"/>
      <point x="192" y="577" type="line"/>
    </contour>
  </outline>
</glyph>
<glyph name="R" format="1">
  <advance width="512"/>
  <unicode hex="0052"/>
  <outline>
    <contour>
      <point x="288" y="576" type="line" smooth="yes"/>
      <point x="299" y="576"/>
      <point x="307" y="573"/>
      <point x="312" y="568" type="curve" smooth="yes"/>
      <point x="317" y="563"/>
      <point x="320" y="555"/>
      <point x="320" y="544" type="curve" smooth="yes"/>
      <point x="320" y="528"/>
      <point x="315" y="513"/>
      <point x="304" y="500" type="curve" smooth="yes"/>
      <point x="293" y="487"/>
      <point x="282" y="475"/>
      <point x="271" y="464" type="curve" smooth="yes"/>
      <point x="191" y="384" type="line"/>
      <point x="191" y="576" type="line"/>
    </contour>
    <contour>
      <point x="-1" y="0" type="line"/>
      <point x="175" y="0" type="line"/>
      <point x="255" y="80" type="line"/>
      <point x="255" y="96" type="line"/>
      <point x="170" y="96" type="line"/>
      <point x="177" y="106"/>
      <point x="182" y="117"/>
      <point x="185" y="130" type="curve" smooth="yes"/>
      <point x="188" y="143"/>
      <point x="190" y="158"/>
      <point x="190" y="176" type="curve" smooth="yes"/>
      <point x="190" y="272" type="line"/>
      <point x="238" y="320" type="line"/>
      <point x="286" y="320" type="line" smooth="yes"/>
      <point x="297" y="320"/>
      <point x="305" y="317"/>
      <point x="310" y="312" type="curve" smooth="yes"/>
      <point x="315" y="307"/>
      <point x="318" y="299"/>
      <point x="318" y="288" type="curve" smooth="yes"/>
      <point x="318" y="96" type="line" smooth="yes"/>
      <point x="318" y="64"/>
      <point x="326" y="40"/>
      <point x="342" y="24" type="curve" smooth="yes"/>
      <point x="358" y="8"/>
      <point x="382" y="0"/>
      <point x="414" y="0" type="curve" smooth="yes"/>
      <point x="430" y="0" type="line"/>
      <point x="510" y="80" type="line"/>
      <point x="510" y="96" type="line"/>
      <point x="478" y="96" type="line" smooth="yes"/>
      <point x="467" y="96"/>
      <point x="459" y="99"/>
      <point x="454" y="104" type="curve" smooth="yes"/>
      <point x="449" y="109"/>
      <point x="446" y="117"/>
      <point x="446" y="128" type="curve" smooth="yes"/>
      <point x="446" y="320" type="line" smooth="yes"/>
      <point x="446" y="352"/>
      <point x="438" y="376"/>
      <point x="422" y="392" type="curve" smooth="yes"/>
      <point x="406" y="408"/>
      <point x="382" y="416"/>
      <point x="350" y="416" type="curve" smooth="yes"/>
      <point x="335" y="416" type="line"/>
      <point x="357" y="437"/>
      <point x="381" y="462"/>
      <point x="407" y="491" type="curve" smooth="yes"/>
      <point x="433" y="520"/>
      <point x="446" y="548"/>
      <point x="446" y="576" type="curve" smooth="yes"/>
      <point x="446" y="608"/>
      <point x="438" y="632"/>
      <point x="422" y="648" type="curve" smooth="yes"/>
      <point x="406" y="664"/>
      <point x="382" y="672"/>
      <point x="350" y="672" type="curve" smooth="yes"/>
      <point x="78" y="672" type="line"/>
      <point x="-2" y="592" type="line"/>
      <point x="-2" y="576" type="line"/>
      <point x="126" y="576" type="line"/>
      <point x="62" y="512" type="line"/>
      <point x="62" y="112" type="line" smooth="yes"/>
      <point x="62" y="96"/>
      <point x="61" y="85"/>
      <point x="58" y="80" type="curve" smooth="yes"/>
      <point x="55" y="75"/>
      <point x="51" y="70"/>
      <point x="46" y="65" type="curve" smooth="yes"/>
      <point x="-2" y="17" type="line"/>
    </contour>
  </outline>
</glyph>
<glyph name="S" format="1">
  <advance width="320"/>
  <unicode hex="0053"/>
  <outline>
    <contour>
      <point x="240" y="0" type="line"/>
      <point x="320" y="80" type="line"/>
      <point x="320" y="144" type="line" smooth="yes"/>
      <point x="320" y="187"/>
      <point x="314" y="218"/>
      <point x="302" y="237" type="curve" smooth="yes"/>
      <point x="290" y="256"/>
      <point x="275" y="278"/>
      <point x="256" y="303" type="curve" smooth="yes"/>
      <point x="128" y="479" type="line" smooth="yes"/>
      <point x="109" y="504"/>
      <point x="99" y="521"/>
      <point x="98" y="530" type="curve" smooth="yes"/>
      <point x="97" y="539"/>
      <point x="96" y="554"/>
      <point x="96" y="575" type="curve"/>
      <point x="240" y="575" type="line"/>
      <point x="320" y="655" type="line"/>
      <point x="320" y="671" type="line"/>
      <point x="80" y="671" type="line"/>
      <point x="0" y="591" type="line"/>
      <point x="0" y="543" type="line" smooth="yes"/>
      <point x="0" y="500"/>
      <point x="6" y="469"/>
      <point x="18" y="450" type="curve" smooth="yes"/>
      <point x="30" y="431"/>
      <point x="45" y="409"/>
      <point x="64" y="384" type="curve" smooth="yes"/>
      <point x="192" y="208" type="line" smooth="yes"/>
      <point x="211" y="183"/>
      <point x="221" y="166"/>
      <point x="222" y="157" type="curve" smooth="yes"/>
      <point x="223" y="148"/>
      <point x="224" y="133"/>
      <point x="224" y="112" type="curve" smooth="yes"/>
      <point x="224" y="96" type="line"/>
      <point x="80" y="96" type="line"/>
      <point x="0" y="16" type="line"/>
      <point x="0" y="0" type="line"/>
    </contour>
  </outline>
</glyph>
<glyph name="T" format="1">
  <advance width="448"/>
  <unicode hex="0054"/>
  <outline>
    <contour>
      <point x="224" y="0" type="line"/>
      <point x="240" y="0" type="line"/>
      <point x="320" y="80" type="line"/>
      <point x="320" y="96" type="line"/>
      <point x="288" y="96" type="line" smooth="yes"/>
      <point x="279" y="96"/>
      <point x="271" y="99"/>
      <point x="265" y="105" type="curve" smooth="yes"/>
      <point x="259" y="111"/>
      <point x="256" y="119"/>
      <point x="256" y="128" type="curve" smooth="yes"/>
      <point x="256" y="576" type="line"/>
      <point x="368" y="576" type="line"/>
      <point x="448" y="656" type="line"/>
      <point x="448" y="672" type="line"/>
      <point x="80" y="672" type="line"/>
      <point x="0" y="592" type="line"/>
      <point x="0" y="576" type="line"/>
      <point x="192" y="576" type="line"/>
      <point x="128" y="512" type="line"/>
      <point x="128" y="96" type="line" smooth="yes"/>
      <point x="128" y="67"/>
      <point x="137" y="44"/>
      <point x="154" y="27" type="curve" smooth="yes"/>
      <point x="171" y="10"/>
      <point x="194" y="1"/>
      <point x="223" y="1" type="curve"/>
    </contour>
  </outline>
</glyph>
<glyph name="U" format="1">
  <advance width="512"/>
  <unicode hex="0055"/>
  <outline>
    <contour>
      <point x="272" y="0" type="line"/>
      <point x="326" y="54" type="line"/>
      <point x="332" y="36"/>
      <point x="343" y="22"/>
      <point x="358" y="13" type="curve" smooth="yes"/>
      <point x="373" y="4"/>
      <point x="393" y="-1"/>
      <point x="417" y="-1" type="curve" smooth="yes"/>
      <point x="433" y="-1" type="line"/>
      <point x="513" y="79" type="line"/>
      <point x="513" y="95" type="line"/>
      <point x="481" y="95" type="line" smooth="yes"/>
      <point x="470" y="95"/>
      <point x="462" y="98"/>
      <point x="457" y="103" type="curve" smooth="yes"/>
      <point x="452" y="108"/>
      <point x="449" y="116"/>
      <point x="449" y="127" type="curve" smooth="yes"/>
      <point x="449" y="575" type="line" smooth="yes"/>
      <point x="449" y="607"/>
      <point x="441" y="631"/>
      <point x="425" y="647" type="curve" smooth="yes"/>
      <point x="409" y="663"/>
      <point x="385" y="671"/>
      <point x="353" y="671" type="curve" smooth="yes"/>
      <point x="337" y="671" type="line"/>
      <point x="257" y="591" type="line"/>
      <point x="257" y="575" type="line"/>
      <point x="289" y="575" type="line" smooth="yes"/>
      <point x="300" y="575"/>
      <point x="308" y="572"/>
      <point x="313" y="567" type="curve" smooth="yes"/>
      <point x="318" y="562"/>
      <point x="321" y="554"/>
      <point x="321" y="543" type="curve" smooth="yes"/>
      <point x="321" y="95" type="line"/>
      <point x="225" y="95" type="line" smooth="yes"/>
      <point x="214" y="95"/>
      <point x="206" y="98"/>
      <point x="201" y="103" type="curve" smooth="yes"/>
      <point x="196" y="108"/>
      <point x="193" y="116"/>
      <point x="193" y="127" type="curve" smooth="yes"/>
      <point x="193" y="575" type="line" smooth="yes"/>
      <point x="193" y="607"/>
      <point x="185" y="631"/>
      <point x="169" y="647" type="curve" smooth="yes"/>
      <point x="153" y="663"/>
      <point x="129" y="671"/>
      <point x="97" y="671" type="curve" smooth="yes"/>
      <point x="81" y="671" type="line"/>
      <point x="1" y="591" type="line"/>
      <point x="1" y="575" type="line"/>
      <point x="33" y="575" type="line" smooth="yes"/>
      <point x="44" y="575"/>
      <point x="52" y="572"/>
      <point x="57" y="567" type="curve" smooth="yes"/>
      <point x="62" y="562"/>
      <point x="65" y="554"/>
      <point x="65" y="543" type="curve" smooth="yes"/>
      <point x="65" y="95" type="line" smooth="yes"/>
      <point x="65" y="63"/>
      <point x="73" y="39"/>
      <point x="89" y="23" type="curve" smooth="yes"/>
      <point x="105" y="7"/>
      <point x="129" y="-1"/>
      <point x="161" y="-1" type="curve" smooth="yes"/>
    </contour>
  </outline>
</glyph>
<glyph name="V" format="1">
  <advance width="480"/>
  <unicode hex="0056"/>
  <outline>
    <contour>
      <point x="176" y="0" type="line"/>
      <point x="240" y="64" type="line" smooth="yes"/>
      <point x="325" y="149"/>
      <point x="386" y="232"/>
      <point x="423" y="312" type="curve" smooth="yes"/>
      <point x="460" y="392"/>
      <point x="479" y="480"/>
      <point x="479" y="576" type="curve" smooth="yes"/>
      <point x="479" y="608"/>
      <point x="471" y="632"/>
      <point x="455" y="648" type="curve" smooth="yes"/>
      <point x="439" y="664"/>
      <point x="415" y="672"/>
      <point x="383" y="672" type="curve" smooth="yes"/>
      <point x="367" y="672" type="line"/>
      <point x="287" y="592" type="line"/>
      <point x="287" y="576" type="line"/>
      <point x="319" y="576" type="line" smooth="yes"/>
      <point x="330" y="576"/>
      <point x="338" y="573"/>
      <point x="343" y="568" type="curve" smooth="yes"/>
      <point x="348" y="563"/>
      <point x="351" y="555"/>
      <point x="351" y="544" type="curve" smooth="yes"/>
      <point x="351" y="467"/>
      <point x="338" y="394"/>
      <point x="311" y="324" type="curve" smooth="yes"/>
      <point x="284" y="254"/>
      <point x="244" y="189"/>
      <point x="191" y="129" type="curve"/>
      <point x="191" y="575" type="line" smooth="yes"/>
      <point x="191" y="607"/>
      <point x="183" y="631"/>
      <point x="167" y="647" type="curve" smooth="yes"/>
      <point x="151" y="663"/>
      <point x="127" y="671"/>
      <point x="95" y="671" type="curve" smooth="yes"/>
      <point x="79" y="671" type="line"/>
      <point x="-1" y="591" type="line"/>
      <point x="-1" y="575" type="line"/>
      <point x="31" y="575" type="line" smooth="yes"/>
      <point x="42" y="575"/>
      <point x="50" y="572"/>
      <point x="55" y="567" type="curve" smooth="yes"/>
      <point x="60" y="562"/>
      <point x="63" y="554"/>
      <point x="63" y="543" type="curve" smooth="yes"/>
      <point x="63" y="95" type="line" smooth="yes"/>
      <point x="63" y="63"/>
      <point x="71" y="39"/>
      <point x="87" y="23" type="curve" smooth="yes"/>
      <point x="103" y="7"/>
      <point x="127" y="-1"/>
      <point x="159" y="-1" type="curve"/>
    </contour>
  </outline>
</glyph>
<glyph name="W" format="1">
  <advance width="736"/>
  <unicode hex="0057"/>
  <outline>
    <contour>
      <point x="176" y="0" type="line"/>
      <point x="320" y="144" type="line"/>
      <point x="320" y="96" type="line" smooth="yes"/>
      <point x="320" y="64"/>
      <point x="328" y="40"/>
      <point x="344" y="24" type="curve" smooth="yes"/>
      <point x="360" y="8"/>
      <point x="384" y="0"/>
      <point x="416" y="0" type="curve" smooth="yes"/>
      <point x="432" y="0" type="line"/>
      <point x="496" y="64" type="line" smooth="yes"/>
      <point x="581" y="149"/>
      <point x="642" y="232"/>
      <point x="679" y="312" type="curve" smooth="yes"/>
      <point x="716" y="392"/>
      <point x="735" y="480"/>
      <point x="735" y="576" type="curve" smooth="yes"/>
      <point x="735" y="608"/>
      <point x="727" y="632"/>
      <point x="711" y="648" type="curve" smooth="yes"/>
      <point x="695" y="664"/>
      <point x="671" y="672"/>
      <point x="639" y="672" type="curve" smooth="yes"/>
      <point x="623" y="672" type="line"/>
      <point x="543" y="592" type="line"/>
      <point x="543" y="576" type="line"/>
      <point x="575" y="576" type="line" smooth="yes"/>
      <point x="586" y="576"/>
      <point x="594" y="573"/>
      <point x="599" y="568" type="curve" smooth="yes"/>
      <point x="604" y="563"/>
      <point x="607" y="555"/>
      <point x="607" y="544" type="curve" smooth="yes"/>
      <point x="607" y="467"/>
      <point x="594" y="394"/>
      <point x="567" y="324" type="curve" smooth="yes"/>
      <point x="540" y="254"/>
      <point x="500" y="189"/>
      <point x="447" y="129" type="curve"/>
      <point x="447" y="575" type="line" smooth="yes"/>
      <point x="447" y="607"/>
      <point x="439" y="631"/>
      <point x="423" y="647" type="curve" smooth="yes"/>
      <point x="407" y="663"/>
      <point x="383" y="671"/>
      <point x="351" y="671" type="curve" smooth="yes"/>
      <point x="335" y="671" type="line"/>
      <point x="255" y="591" type="line"/>
      <point x="255" y="575" type="line"/>
      <point x="287" y="575" type="line" smooth="yes"/>
      <point x="298" y="575"/>
      <point x="306" y="572"/>
      <point x="311" y="567" type="curve" smooth="yes"/>
      <point x="316" y="562"/>
      <point x="319" y="554"/>
      <point x="319" y="543" type="curve" smooth="yes"/>
      <point x="319" y="255" type="line"/>
      <point x="191" y="127" type="line"/>
      <point x="191" y="575" type="line" smooth="yes"/>
      <point x="191" y="607"/>
      <point x="183" y="631"/>
      <point x="167" y="647" type="curve" smooth="yes"/>
      <point x="151" y="663"/>
      <point x="127" y="671"/>
      <point x="95" y="671" type="curve" smooth="yes"/>
      <point x="79" y="671" type="line"/>
      <point x="-1" y="591" type="line"/>
      <point x="-1" y="575" type="line"/>
      <point x="31" y="575" type="line" smooth="yes"/>
      <point x="42" y="575"/>
      <point x="50" y="572"/>
      <point x="55" y="567" type="curve" smooth="yes"/>
      <point x="60" y="562"/>
      <point x="63" y="554"/>
      <point x="63" y="543" type="curve" smooth="yes"/>
      <point x="63" y="95" type="line" smooth="yes"/>
      <point x="63" y="63"/>
      <point x="71" y="39"/>
      <point x="87" y="23" type="curve" smooth="yes"/>
      <point x="103" y="7"/>
      <point x="127" y="-1"/>
      <point x="159" y="-1" type="curve"/>
    </contour>
  </outline>
</glyph>
<glyph name="X" format="1">
  <advance width="448"/>
  <unicode hex="0058"/>
  <outline>
    <contour>
      <point x="112" y="0" type="line"/>
      <point x="192" y="80" type="line"/>
      <point x="192" y="96" type="line"/>
      <point x="160" y="96" type="line" smooth="yes"/>
      <point x="149" y="96"/>
      <point x="141" y="99"/>
      <point x="136" y="104" type="curve" smooth="yes"/>
      <point x="131" y="109"/>
      <point x="128" y="117"/>
      <point x="128" y="128" type="curve" smooth="yes"/>
      <point x="128" y="144"/>
      <point x="133" y="159"/>
      <point x="144" y="172" type="curve" smooth="yes"/>
      <point x="155" y="185"/>
      <point x="166" y="197"/>
      <point x="177" y="208" type="curve" smooth="yes"/>
      <point x="199" y="230" type="line"/>
      <point x="257" y="96" type="line" smooth="yes"/>
      <point x="266" y="75"/>
      <point x="278" y="54"/>
      <point x="292" y="33" type="curve" smooth="yes"/>
      <point x="306" y="12"/>
      <point x="326" y="1"/>
      <point x="353" y="1" type="curve" smooth="yes"/>
      <point x="369" y="1" type="line"/>
      <point x="449" y="81" type="line"/>
      <point x="449" y="97" type="line"/>
      <point x="417" y="97" type="line" smooth="yes"/>
      <point x="412" y="97"/>
      <point x="407" y="98"/>
      <point x="402" y="101" type="curve" smooth="yes"/>
      <point x="397" y="104"/>
      <point x="391" y="113"/>
      <point x="384" y="129" type="curve" smooth="yes"/>
      <point x="283" y="364" type="line"/>
      <point x="320" y="401" type="line" smooth="yes"/>
      <point x="341" y="422"/>
      <point x="368" y="449"/>
      <point x="400" y="481" type="curve" smooth="yes"/>
      <point x="432" y="513"/>
      <point x="448" y="545"/>
      <point x="448" y="577" type="curve" smooth="yes"/>
      <point x="448" y="609"/>
      <point x="440" y="633"/>
      <point x="424" y="649" type="curve" smooth="yes"/>
      <point x="408" y="665"/>
      <point x="384" y="673"/>
      <point x="352" y="673" type="curve" smooth="yes"/>
      <point x="336" y="673" type="line"/>
      <point x="256" y="593" type="line"/>
      <point x="256" y="577" type="line"/>
      <point x="288" y="577" type="line" smooth="yes"/>
      <point x="299" y="577"/>
      <point x="307" y="574"/>
      <point x="312" y="569" type="curve" smooth="yes"/>
      <point x="317" y="564"/>
      <point x="320" y="556"/>
      <point x="320" y="545" type="curve" smooth="yes"/>
      <point x="320" y="529"/>
      <point x="315" y="514"/>
      <point x="304" y="501" type="curve" smooth="yes"/>
      <point x="293" y="488"/>
      <point x="282" y="476"/>
      <point x="271" y="465" type="curve" smooth="yes"/>
      <point x="249" y="443" type="line"/>
      <point x="191" y="577" type="line" smooth="yes"/>
      <point x="179" y="605"/>
      <point x="167" y="628"/>
      <point x="156" y="646" type="curve" smooth="yes"/>
      <point x="145" y="664"/>
      <point x="125" y="673"/>
      <point x="96" y="673" type="curve" smooth="yes"/>
      <point x="80" y="673" type="line"/>
      <point x="0" y="593" type="line"/>
      <point x="0" y="577" type="line"/>
      <point x="32" y="577" type="line" smooth="yes"/>
      <point x="41" y="577"/>
      <point x="48" y="574"/>
      <point x="52" y="568" type="curve" smooth="yes"/>
      <point x="56" y="562"/>
      <point x="60" y="554"/>
      <point x="64" y="545" type="curve" smooth="yes"/>
      <point x="165" y="310" type="line"/>
      <point x="128" y="273" type="line" smooth="yes"/>
      <point x="107" y="252"/>
      <point x="80" y="225"/>
      <point x="48" y="193" type="curve" smooth="yes"/>
      <point x="16" y="161"/>
      <point x="0" y="129"/>
      <point x="0" y="97" type="curve" smooth="yes"/>
      <point x="0" y="65"/>
      <point x="8" y="41"/>
      <point x="24" y="25" type="curve" smooth="yes"/>
      <point x="40" y="9"/>
      <point x="64" y="1"/>
      <point x="96" y="1" type="curve"/>
    </contour>
  </outline>
</glyph>
<glyph name="Y" format="1">
  <advance width="480"/>
  <unicode hex="0059"/>
  <outline>
    <contour>
      <point x="0" y="0" type="line"/>
      <point x="288" y="0" type="line"/>
      <point x="384" y="96" type="line" smooth="yes"/>
      <point x="405" y="117"/>
      <point x="421" y="136"/>
      <point x="432" y="152" type="curve" smooth="yes"/>
      <point x="443" y="168"/>
      <point x="448" y="192"/>
      <point x="448" y="224" type="curve" smooth="yes"/>
      <point x="448" y="576" type="line" smooth="yes"/>
      <point x="448" y="608"/>
      <point x="440" y="632"/>
      <point x="424" y="648" type="curve" smooth="yes"/>
      <point x="408" y="664"/>
      <point x="384" y="672"/>
      <point x="352" y="672" type="curve" smooth="yes"/>
      <point x="336" y="672" type="line"/>
      <point x="256" y="592" type="line"/>
      <point x="256" y="576" type="line"/>
      <point x="288" y="576" type="line" smooth="yes"/>
      <point x="299" y="576"/>
      <point x="307" y="573"/>
      <point x="312" y="568" type="curve" smooth="yes"/>
      <point x="317" y="563"/>
      <point x="320" y="555"/>
      <point x="320" y="544" type="curve" smooth="yes"/>
      <point x="320" y="256" type="line"/>
      <point x="224" y="256" type="line" smooth="yes"/>
      <point x="213" y="256"/>
      <point x="205" y="259"/>
      <point x="200" y="264" type="curve" smooth="yes"/>
      <point x="195" y="269"/>
      <point x="192" y="277"/>
      <point x="192" y="288" type="curve" smooth="yes"/>
      <point x="192" y="576" type="line" smooth="yes"/>
      <point x="192" y="608"/>
      <point x="184" y="632"/>
      <point x="168" y="648" type="curve" smooth="yes"/>
      <point x="152" y="664"/>
      <point x="128" y="672"/>
      <point x="96" y="672" type="curve" smooth="yes"/>
      <point x="80" y="672" type="line"/>
      <point x="0" y="592" type="line"/>
      <point x="0" y="576" type="line"/>
      <point x="32" y="576" type="line" smooth="yes"/>
      <point x="43" y="576"/>
      <point x="51" y="573"/>
      <point x="56" y="568" type="curve" smooth="yes"/>
      <point x="61" y="563"/>
      <point x="64" y="555"/>
      <point x="64" y="544" type="curve" smooth="yes"/>
      <point x="64" y="256" type="line" smooth="yes"/>
      <point x="64" y="224"/>
      <point x="72" y="200"/>
      <point x="88" y="184" type="curve" smooth="yes"/>
      <point x="104" y="168"/>
      <point x="128" y="160"/>
      <point x="160" y="160" type="curve" smooth="yes"/>
      <point x="320" y="160" type="line"/>
      <point x="320" y="144"/>
      <point x="319" y="133"/>
      <point x="316" y="128" type="curve" smooth="yes"/>
      <point x="313" y="123"/>
      <point x="309" y="118"/>
      <point x="304" y="113" type="curve" smooth="yes"/>
      <point x="288" y="97" type="line"/>
      <point x="80" y="97" type="line"/>
      <point x="0" y="17" type="line"/>
    </contour>
  </outline>
</glyph>
<glyph name="Z" format="1">
  <advance width="512"/>
  <unicode hex="005A"/>
  <outline>
    <contour>
      <point x="0" y="0" type="line"/>
      <point x="304" y="0" type="line"/>
      <point x="384" y="80" type="line"/>
      <point x="384" y="96" type="line"/>
      <point x="138" y="96" type="line"/>
      <point x="384" y="656" type="line"/>
      <point x="384" y="672" type="line"/>
      <point x="80" y="672" type="line"/>
      <point x="0" y="592" type="line"/>
      <point x="0" y="576" type="line"/>
      <point x="246" y="576" type="line"/>
      <point x="0" y="16" type="line"/>
    </contour>
  </outline>
</glyph>
<glyph name="asciicircum" format="1">
  <advance width="420"/>
  <unicode hex="005E"/>
  <outline>
    <contour>
      <point x="113" y="450" type="line"/>
      <point x="210" y="593" type="line"/>
      <point x="307" y="450" type="line"/>
      <point x="400" y="450" type="line"/>
      <point x="250" y="667" type="line"/>
      <point x="170" y="667" type="line"/>
      <point x="20" y="450" type="line"/>
    </contour>
  </outline>
</glyph>
<glyph name="underscore" format="1">
  <advance width="409"/>
  <unicode hex="005F"/>
  <outline>
    <contour>
      <point x="0" y="-32" type="line"/>
      <point x="0" y="-48" type="line"/>
      <point x="352" y="-48" type="line"/>
      <point x="400" y="0" type="line"/>
      <point x="400" y="16" type="line"/>
      <point x="48" y="16" type="line"/>
    </contour>
  </outline>
</glyph>
<glyph name="grave" format="1">
  <advance width="250"/>
  <unicode hex="0060"/>
  <outline>
    <contour>
      <point x="176" y="518" type="line"/>
      <point x="230" y="518" type="line"/>
      <point x="151" y="612" type="line"/>
      <point x="20" y="612" type="line"/>
    </contour>
  </outline>
</glyph>
<glyph name="exclamdown" format="1">
  <advance width="256"/>
  <unicode hex="00A1"/>
  <outline>
    <contour>
      <point x="152" y="320" type="line"/>
      <point x="224" y="392" type="line"/>
      <point x="224" y="408" type="line"/>
      <point x="152" y="480" type="line"/>
      <point x="136" y="480" type="line"/>
      <point x="64" y="408" type="line"/>
      <point x="64" y="392" type="line"/>
      <point x="136" y="320" type="line"/>
    </contour>
    <contour>
      <point x="64" y="152" type="curve" smooth="yes"/>
      <point x="64" y="-136" type="line" smooth="yes"/>
      <point x="64" y="-147"/>
      <point x="61" y="-155"/>
      <point x="56" y="-160" type="curve" smooth="yes"/>
      <point x="51" y="-165"/>
      <point x="43" y="-168"/>
      <point x="32" y="-168" type="curve" smooth="yes"/>
      <point x="0" y="-168" type="line"/>
      <point x="0" y="-184" type="line"/>
      <point x="80" y="-264" type="line"/>
      <point x="96" y="-264" type="line" smooth="yes"/>
      <point x="128" y="-264"/>
      <point x="152" y="-256"/>
      <point x="168" y="-240" type="curve" smooth="yes"/>
      <point x="184" y="-224"/>
      <point x="192" y="-200"/>
      <point x="192" y="-168" type="curve" smooth="yes"/>
      <point x="192" y="120" type="line" smooth="yes"/>
      <point x="192" y="131"/>
      <point x="195" y="139"/>
      <point x="200" y="144" type="curve" smooth="yes"/>
      <point x="205" y="149"/>
      <point x="213" y="152"/>
      <point x="224" y="152" type="curve" smooth="yes"/>
      <point x="256" y="152" type="line"/>
      <point x="256" y="168" type="line"/>
      <point x="176" y="248" type="line"/>
      <point x="160" y="248" type="line" smooth="yes"/>
      <point x="128" y="248"/>
      <point x="104" y="240"/>
      <point x="88" y="224" type="curve" smooth="yes"/>
      <point x="72" y="208"/>
      <point x="64" y="184"/>
    </contour>
  </outline>
</glyph>
<glyph name="hyphen" format="1">
  <advance width="284"/>
  <unicode hex="00AD"/>
  <outline>
    <contour>
      <point x="0" y="304" type="line"/>
      <point x="0" y="288" type="line"/>
      <point x="272" y="288" type="line"/>
      <point x="320" y="336" type="line"/>
      <point x="320" y="352" type="line"/>
      <point x="48" y="352" type="line"/>
    </contour>
  </outline>
</glyph>
<glyph name="semicolon" format="1">
  <advance width="212"/>
  <unicode hex="037E"/>
  <outline>
    <contour>
      <point x="32" y="368" type="line"/>
      <point x="32" y="352" type="line"/>
      <point x="104" y="280" type="line"/>
      <point x="120" y="280" type="line"/>
      <point x="192" y="352" type="line"/>
      <point x="192" y="368" type="line"/>
      <point x="120" y="440" type="line"/>
      <point x="104" y="440" type="line"/>
    </contour>
    <contour>
      <point x="104" y="-32" type="line"/>
      <point x="120" y="-32" type="line"/>
      <point x="192" y="40" type="line"/>
      <point x="192" y="56" type="line"/>
      <point x="120" y="128" type="line"/>
      <point x="104" y="128" type="line"/>
      <point x="32" y="56" type="line"/>
      <point x="32" y="40" type="line"/>
    </contour>
  </outline>
</glyph>
<glyph name="quoteleft" format="1">
  <advance width="176"/>
  <unicode hex="2018"/>
  <outline>
    <contour>
      <point x="160" y="504" type="line"/>
      <point x="160" y="520" type="line"/>
      <point x="128" y="541"/>
      <point x="108" y="562"/>
      <point x="100" y="583" type="curve" smooth="yes"/>
      <point x="92" y="604"/>
      <point x="88" y="633"/>
      <point x="88" y="670" type="curve"/>
      <point x="72" y="670" type="line"/>
      <point x="0" y="598" type="line"/>
      <point x="0" y="582" type="line" smooth="yes"/>
      <point x="0" y="550"/>
      <point x="6" y="521"/>
      <point x="18" y="494" type="curve" smooth="yes"/>
      <point x="30" y="467"/>
      <point x="48" y="446"/>
      <point x="72" y="430" type="curve"/>
      <point x="88" y="430" type="line"/>
    </contour>
  </outline>
</glyph>
<glyph name="quoteright" format="1">
  <advance width="176"/>
  <unicode hex="2019"/>
  <outline>
    <contour>
      <point x="0" y="600" type="line"/>
      <point x="0" y="584" type="line"/>
      <point x="32" y="563"/>
      <point x="52" y="542"/>
      <point x="60" y="521" type="curve" smooth="yes"/>
      <point x="68" y="500"/>
      <point x="72" y="471"/>
      <point x="72" y="434" type="curve"/>
      <point x="88" y="434" type="line"/>
      <point x="160" y="506" type="line"/>
      <point x="160" y="522" type="line" smooth="yes"/>
      <point x="160" y="554"/>
      <point x="154" y="583"/>
      <point x="142" y="610" type="curve" smooth="yes"/>
      <point x="130" y="637"/>
      <point x="112" y="658"/>
      <point x="88" y="674" type="curve"/>
      <point x="72" y="674" type="line"/>
    </contour>
  </outline>
</glyph>
<glyph name="quotedblleft" format="1">
  <advance width="500"/>
  <unicode hex="201C"/>
  <outline>
    <contour>
      <point x="160" y="504" type="line"/>
      <point x="160" y="520" type="line"/>
      <point x="128" y="541"/>
      <point x="108" y="562"/>
      <point x="100" y="583" type="curve" smooth="yes"/>
      <point x="92" y="604"/>
      <point x="88" y="633"/>
      <point x="88" y="670" type="curve"/>
      <point x="72" y="670" type="line"/>
      <point x="0" y="598" type="line"/>
      <point x="0" y="582" type="line" smooth="yes"/>
      <point x="0" y="550"/>
      <point x="6" y="521"/>
      <point x="18" y="494" type="curve" smooth="yes"/>
      <point x="30" y="467"/>
      <point x="48" y="446"/>
      <point x="72" y="430" type="curve"/>
      <point x="88" y="430" type="line"/>
    </contour>
    <contour>
      <point x="352" y="502" type="line"/>
      <point x="352" y="518" type="line"/>
      <point x="320" y="539"/>
      <point x="300" y="560"/>
      <point x="292" y="581" type="curve" smooth="yes"/>
      <point x="284" y="602"/>
      <point x="280" y="631"/>
      <point x="280" y="668" type="curve"/>
      <point x="264" y="668" type="line"/>
      <point x="192" y="596" type="line"/>
      <point x="192" y="580" type="line" smooth="yes"/>
      <point x="192" y="548"/>
      <point x="198" y="519"/>
      <point x="210" y="492" type="curve" smooth="yes"/>
      <point x="222" y="465"/>
      <point x="240" y="444"/>
      <point x="264" y="428" type="curve"/>
      <point x="280" y="428" type="line"/>
    </contour>
  </outline>
</glyph>
<glyph name="quotedblright" format="1">
  <advance width="500"/>
  <unicode hex="201D"/>
  <outline>
    <contour>
      <point x="0" y="600" type="line"/>
      <point x="0" y="584" type="line"/>
      <point x="32" y="563"/>
      <point x="52" y="542"/>
      <point x="60" y="521" type="curve" smooth="yes"/>
      <point x="68" y="500"/>
      <point x="72" y="471"/>
      <point x="72" y="434" type="curve"/>
      <point x="88" y="434" type="line"/>
      <point x="160" y="506" type="line"/>
      <point x="160" y="522" type="line" smooth="yes"/>
      <point x="160" y="554"/>
      <point x="154" y="583"/>
      <point x="142" y="610" type="curve" smooth="yes"/>
      <point x="130" y="637"/>
      <point x="112" y="658"/>
      <point x="88" y="674" type="curve"/>
      <point x="72" y="674" type="line"/>
    </contour>
    <contour>
      <point x="192" y="602" type="line"/>
      <point x="192" y="586" type="line"/>
      <point x="224" y="565"/>
      <point x="244" y="544"/>
      <point x="252" y="523" type="curve" smooth="yes"/>
      <point x="260" y="502"/>
      <point x="264" y="473"/>
      <point x="264" y="436" type="curve"/>
      <point x="280" y="436" type="line"/>
      <point x="352" y="508" type="line"/>
      <point x="352" y="524" type="line" smooth="yes"/>
      <point x="352" y="556"/>
      <point x="346" y="585"/>
      <point x="334" y="612" type="curve" smooth="yes"/>
      <point x="322" y="639"/>
      <point x="304" y="660"/>
      <point x="280" y="676" type="curve"/>
      <point x="264" y="676" type="line"/>
    </contour>
  </outline>
</glyph>
<glyph name="bullet" format="1">
  <advance width="307"/>
  <unicode hex="2022"/>
  <outline>
    <contour>
      <point x="59" y="193" type="line"/>
      <point x="71" y="181"/>
      <point x="85" y="171"/>
      <point x="101" y="164" type="curve" smooth="yes"/>
      <point x="117" y="157"/>
      <point x="134" y="153"/>
      <point x="153" y="153" type="curve" smooth="yes"/>
      <point x="172" y="153"/>
      <point x="190" y="157"/>
      <point x="206" y="164" type="curve" smooth="yes"/>
      <point x="222" y="171"/>
      <point x="236" y="181"/>
      <point x="248" y="193" type="curve" smooth="yes"/>
      <point x="260" y="205"/>
      <point x="270" y="219"/>
      <point x="277" y="235" type="curve" smooth="yes"/>
      <point x="284" y="251"/>
      <point x="288" y="268"/>
      <point x="288" y="287" type="curve" smooth="yes"/>
      <point x="288" y="309"/>
      <point x="284" y="329"/>
      <point x="276" y="346" type="curve" smooth="yes"/>
      <point x="268" y="363"/>
      <point x="258" y="377"/>
      <point x="245" y="388" type="curve" smooth="yes"/>
      <point x="232" y="399"/>
      <point x="218" y="407"/>
      <point x="202" y="413" type="curve" smooth="yes"/>
      <point x="186" y="419"/>
      <point x="170" y="422"/>
      <point x="153" y="422" type="curve" smooth="yes"/>
      <point x="136" y="422"/>
      <point x="120" y="419"/>
      <point x="104" y="413" type="curve" smooth="yes"/>
      <point x="88" y="407"/>
      <point x="74" y="399"/>
      <point x="61" y="388" type="curve" smooth="yes"/>
      <point x="48" y="377"/>
      <point x="38" y="363"/>
      <point x="30" y="346" type="curve" smooth="yes"/>
      <point x="22" y="329"/>
      <point x="18" y="309"/>
      <point x="18" y="287" type="curve" smooth="yes"/>
      <point x="18" y="268"/>
      <point x="22" y="251"/>
      <point x="29" y="235" type="curve" smooth="yes"/>
      <point x="36" y="219"/>
      <point x="46" y="205"/>
      <point x="58" y="193" type="curve"/>
    </contour>
  </outline>
</glyph>
<glyph name="A.alt01" format="1">
  <advance width="512"/>
  <outline>
    <contour>
      <point x="313" y="288" type="line"/>
      <point x="229" y="288" type="line"/>
      <point x="272" y="434" type="line"/>
    </contour>
    <contour>
      <point x="192" y="0" type="line"/>
      <point x="272" y="80" type="line"/>
      <point x="272" y="96" type="line"/>
      <point x="172" y="96" type="line"/>
      <point x="200" y="192" type="line"/>
      <point x="341" y="192" type="line"/>
      <point x="368" y="96" type="line" smooth="yes"/>
      <point x="376" y="67"/>
      <point x="387" y="44"/>
      <point x="400" y="27" type="curve" smooth="yes"/>
      <point x="413" y="10"/>
      <point x="434" y="1"/>
      <point x="463" y="1" type="curve" smooth="yes"/>
      <point x="479" y="1" type="line"/>
      <point x="559" y="81" type="line"/>
      <point x="559" y="97" type="line"/>
      <point x="527" y="97" type="line" smooth="yes"/>
      <point x="518" y="97"/>
      <point x="511" y="100"/>
      <point x="506" y="106" type="curve" smooth="yes"/>
      <point x="501" y="112"/>
      <point x="497" y="120"/>
      <point x="494" y="129" type="curve" smooth="yes"/>
      <point x="366" y="577" type="line" smooth="yes"/>
      <point x="358" y="606"/>
      <point x="347" y="629"/>
      <point x="334" y="646" type="curve" smooth="yes"/>
      <point x="321" y="663"/>
      <point x="300" y="672"/>
      <point x="271" y="672" type="curve" smooth="yes"/>
      <point x="255" y="672" type="line"/>
      <point x="175" y="592" type="line"/>
      <point x="175" y="576" type="line"/>
      <point x="207" y="576" type="line" smooth="yes"/>
      <point x="216" y="576"/>
      <point x="223" y="573"/>
      <point x="228" y="567" type="curve" smooth="yes"/>
      <point x="233" y="561"/>
      <point x="237" y="553"/>
      <point x="240" y="544" type="curve"/>
      <point x="244" y="529" type="line"/>
      <point x="240" y="528" type="line"/>
      <point x="167" y="288" type="line"/>
      <point x="112" y="288" type="line"/>
      <point x="32" y="208" type="line"/>
      <point x="32" y="192" type="line"/>
      <point x="138" y="192" type="line"/>
      <point x="108" y="92" type="line"/>
      <point x="32" y="16" type="line"/>
      <point x="32" y="0" type="line"/>
    </contour>
  </outline>
</glyph>
<glyph name="M.alt01" format="1">
  <advance width="768"/>
  <outline>
    <contour>
      <point x="0" y="0" type="line"/>
      <point x="176" y="0" type="line"/>
      <point x="256" y="80" type="line"/>
      <point x="256" y="96" type="line"/>
      <point x="171" y="96" type="line"/>
      <point x="178" y="106"/>
      <point x="183" y="117"/>
      <point x="186" y="130" type="curve" smooth="yes"/>
      <point x="189" y="143"/>
      <point x="191" y="158"/>
      <point x="191" y="176" type="curve" smooth="yes"/>
      <point x="191" y="576" type="line"/>
      <point x="383" y="576" type="line"/>
      <point x="319" y="512" type="line"/>
      <point x="319" y="96" type="line" smooth="yes"/>
      <point x="319" y="67"/>
      <point x="328" y="44"/>
      <point x="345" y="27" type="curve" smooth="yes"/>
      <point x="362" y="10"/>
      <point x="385" y="1"/>
      <point x="414" y="1" type="curve" smooth="yes"/>
      <point x="430" y="1" type="line"/>
      <point x="510" y="81" type="line"/>
      <point x="510" y="97" type="line"/>
      <point x="478" y="97" type="line" smooth="yes"/>
      <point x="469" y="97"/>
      <point x="461" y="100"/>
      <point x="455" y="106" type="curve" smooth="yes"/>
      <point x="449" y="112"/>
      <point x="446" y="120"/>
      <point x="446" y="129" type="curve" smooth="yes"/>
      <point x="446" y="577" type="line"/>
      <point x="542" y="577" type="line" smooth="yes"/>
      <point x="553" y="577"/>
      <point x="561" y="574"/>
      <point x="566" y="569" type="curve" smooth="yes"/>
      <point x="571" y="564"/>
      <point x="574" y="556"/>
      <point x="574" y="545" type="curve" smooth="yes"/>
      <point x="574" y="97" type="line" smooth="yes"/>
      <point x="574" y="65"/>
      <point x="582" y="41"/>
      <point x="598" y="25" type="curve" smooth="yes"/>
      <point x="614" y="9"/>
      <point x="638" y="1"/>
      <point x="670" y="1" type="curve" smooth="yes"/>
      <point x="686" y="1" type="line"/>
      <point x="766" y="81" type="line"/>
      <point x="766" y="97" type="line"/>
      <point x="734" y="97" type="line" smooth="yes"/>
      <point x="723" y="97"/>
      <point x="715" y="100"/>
      <point x="710" y="105" type="curve" smooth="yes"/>
      <point x="705" y="110"/>
      <point x="702" y="118"/>
      <point x="702" y="129" type="curve" smooth="yes"/>
      <point x="702" y="577" type="line" smooth="yes"/>
      <point x="702" y="609"/>
      <point x="694" y="633"/>
      <point x="678" y="649" type="curve" smooth="yes"/>
      <point x="662" y="665"/>
      <point x="638" y="673"/>
      <point x="606" y="673" type="curve" smooth="yes"/>
      <point x="78" y="673" type="line"/>
      <point x="-2" y="593" type="line"/>
      <point x="-2" y="577" type="line"/>
      <point x="126" y="577" type="line"/>
      <point x="62" y="513" type="line"/>
      <point x="62" y="113" type="line" smooth="yes"/>
      <point x="62" y="97"/>
      <point x="61" y="86"/>
      <point x="58" y="81" type="curve" smooth="yes"/>
      <point x="55" y="76"/>
      <point x="51" y="71"/>
      <point x="46" y="66" type="curve" smooth="yes"/>
      <point x="-2" y="18" type="line"/>
    </contour>
  </outline>
</glyph>
